<mxfile host="app.diagrams.net" modified="2022-11-11T14:18:04.772Z" agent="5.0 (Macintosh; Intel Mac OS X 10_15_7) AppleWebKit/537.36 (KHTML, like Gecko) Chrome/106.0.0.0 Safari/537.36" etag="PgEUEerv-3rpWqs9wcNw" version="20.4.1" type="github">
  <diagram id="rFfVL89SZqLf6waMyosn" name="第 1 页">
    <mxGraphModel dx="3245" dy="2085" grid="0" gridSize="1" guides="1" tooltips="1" connect="1" arrows="1" fold="1" page="1" pageScale="1" pageWidth="3000" pageHeight="3000" background="none" math="1" shadow="0">
      <root>
        <mxCell id="0" />
        <mxCell id="1" parent="0" />
        <mxCell id="bYJwymjEN58D1QEqfzbn-159" value="" style="rounded=0;whiteSpace=wrap;html=1;fontSize=16;fontColor=#000000;fillColor=none;" vertex="1" parent="1">
          <mxGeometry x="1834" y="1844" width="1000" height="749" as="geometry" />
        </mxCell>
        <mxCell id="bYJwymjEN58D1QEqfzbn-7" value="" style="rounded=0;whiteSpace=wrap;html=1;fontColor=#FFFFFF;fillColor=none;" vertex="1" parent="1">
          <mxGeometry x="1294" y="1205" width="483" height="349" as="geometry" />
        </mxCell>
        <mxCell id="bYJwymjEN58D1QEqfzbn-6" value="" style="rounded=0;whiteSpace=wrap;html=1;fontColor=#FFFFFF;fillColor=none;" vertex="1" parent="1">
          <mxGeometry x="1300.5" y="749" width="483" height="349" as="geometry" />
        </mxCell>
        <mxCell id="bYJwymjEN58D1QEqfzbn-1" value="" style="rounded=0;whiteSpace=wrap;html=1;fontSize=16;fontColor=#FFFFFF;fillColor=none;" vertex="1" parent="1">
          <mxGeometry x="64" y="710" width="1095" height="1711" as="geometry" />
        </mxCell>
        <mxCell id="gqOUeNTk_rE2bpNe1rsm-84" value="" style="rounded=0;whiteSpace=wrap;html=1;fontColor=#FFFFFF;fillColor=none;" parent="1" vertex="1">
          <mxGeometry x="1317" y="1645" width="483" height="349" as="geometry" />
        </mxCell>
        <mxCell id="6ellRIqbGZI2gtahciG1-1" value="&lt;meta charset=&quot;utf-8&quot;&gt;&lt;b id=&quot;docs-internal-guid-9c5a6fa5-7fff-c8df-90ff-69561f501aed&quot; style=&quot;font-weight:normal;&quot;&gt;&lt;p style=&quot;line-height:1.2;text-align: center;margin-top:0pt;margin-bottom:0pt;&quot; dir=&quot;ltr&quot;&gt;&lt;span style=&quot;font-size: 12pt; font-family: &amp;quot;Noto Sans SC&amp;quot;, sans-serif; color: rgb(255, 255, 255); background-color: transparent; font-weight: 400; font-style: normal; font-variant: normal; text-decoration: none; vertical-align: baseline;&quot;&gt;司机载客合约&lt;/span&gt;&lt;/p&gt;&lt;/b&gt;&lt;br class=&quot;Apple-interchange-newline&quot;&gt;" style="text;whiteSpace=wrap;html=1;rounded=1;" parent="1" vertex="1">
          <mxGeometry x="400" y="220" width="130" height="60" as="geometry" />
        </mxCell>
        <mxCell id="gqOUeNTk_rE2bpNe1rsm-179" style="edgeStyle=orthogonalEdgeStyle;rounded=0;orthogonalLoop=1;jettySize=auto;html=1;entryX=0;entryY=0.25;entryDx=0;entryDy=0;fontSize=28;fontColor=#FFFFFF;startArrow=none;startFill=0;endArrow=none;endFill=0;" parent="1" source="6ellRIqbGZI2gtahciG1-5" target="6ellRIqbGZI2gtahciG1-36" edge="1">
          <mxGeometry relative="1" as="geometry" />
        </mxCell>
        <mxCell id="6ellRIqbGZI2gtahciG1-5" value="&amp;lt;Contract&amp;gt;&lt;br&gt;&lt;br&gt;&lt;span id=&quot;docs-internal-guid-30c552a8-7fff-c146-13df-889dcf74978a&quot;&gt;&lt;span style=&quot;font-family: &amp;quot;Noto Sans SC&amp;quot;, sans-serif; background-color: transparent; font-variant-numeric: normal; font-variant-east-asian: normal; vertical-align: baseline;&quot;&gt;&lt;font style=&quot;font-size: 12px;&quot;&gt;委托拍卖合同&lt;br&gt;created_at&lt;br&gt;&lt;/font&gt;&lt;/span&gt;&lt;/span&gt;" style="rounded=1;whiteSpace=wrap;html=1;fillColor=#d80073;fontColor=#ffffff;strokeColor=none;arcSize=12;" parent="1" vertex="1">
          <mxGeometry x="540" y="1143" width="100" height="85" as="geometry" />
        </mxCell>
        <mxCell id="6ellRIqbGZI2gtahciG1-8" value="" style="endArrow=none;html=1;rounded=1;fontColor=#FFFFFF;startArrow=none;" parent="1" edge="1">
          <mxGeometry width="50" height="50" relative="1" as="geometry">
            <mxPoint x="200" y="390" as="sourcePoint" />
            <mxPoint x="200" y="390" as="targetPoint" />
          </mxGeometry>
        </mxCell>
        <mxCell id="bYJwymjEN58D1QEqfzbn-12" style="edgeStyle=orthogonalEdgeStyle;rounded=0;orthogonalLoop=1;jettySize=auto;html=1;fontSize=16;fontColor=#FFFFFF;startArrow=none;startFill=0;endArrow=none;endFill=0;" edge="1" parent="1" source="6ellRIqbGZI2gtahciG1-20" target="6ellRIqbGZI2gtahciG1-5">
          <mxGeometry relative="1" as="geometry" />
        </mxCell>
        <mxCell id="6ellRIqbGZI2gtahciG1-20" value="&amp;lt;Proposal&amp;gt;&lt;br&gt;&lt;br&gt;&lt;span id=&quot;docs-internal-guid-30c552a8-7fff-c146-13df-889dcf74978a&quot;&gt;&lt;span style=&quot;font-family: &amp;quot;Noto Sans SC&amp;quot;, sans-serif; background-color: transparent; font-variant-numeric: normal; font-variant-east-asian: normal; vertical-align: baseline;&quot;&gt;&lt;font style=&quot;font-size: 12px;&quot;&gt;委托拍卖方案&lt;br&gt;proposed_at&lt;br&gt;&lt;/font&gt;&lt;/span&gt;&lt;/span&gt;" style="rounded=1;whiteSpace=wrap;html=1;fillColor=#d80073;fontColor=#ffffff;strokeColor=none;" parent="1" vertex="1">
          <mxGeometry x="320" y="1143" width="120" height="85" as="geometry" />
        </mxCell>
        <mxCell id="bYJwymjEN58D1QEqfzbn-11" style="edgeStyle=orthogonalEdgeStyle;rounded=0;orthogonalLoop=1;jettySize=auto;html=1;fontSize=16;fontColor=#FFFFFF;startArrow=none;startFill=0;endArrow=none;endFill=0;" edge="1" parent="1" source="6ellRIqbGZI2gtahciG1-21" target="6ellRIqbGZI2gtahciG1-20">
          <mxGeometry relative="1" as="geometry" />
        </mxCell>
        <mxCell id="6ellRIqbGZI2gtahciG1-21" value="&amp;lt;rfp&amp;gt;&lt;br&gt;&lt;br&gt;&lt;span id=&quot;docs-internal-guid-30c552a8-7fff-c146-13df-889dcf74978a&quot;&gt;&lt;span style=&quot;background-color: transparent; font-variant-numeric: normal; font-variant-east-asian: normal; vertical-align: baseline;&quot;&gt;&lt;font style=&quot;&quot;&gt;&lt;font face=&quot;Noto Sans SC, sans-serif&quot;&gt;委托拍卖估值&lt;/font&gt;&lt;br&gt;&lt;font face=&quot;Noto Sans SC, sans-serif&quot;&gt;created_at&lt;/font&gt;&lt;br&gt;&lt;font face=&quot;Noto Sans SC, sans-serif&quot;&gt;collection_price&lt;/font&gt;&lt;br&gt;&lt;/font&gt;&lt;/span&gt;&lt;/span&gt;" style="rounded=1;whiteSpace=wrap;html=1;fillColor=#d80073;fontColor=#ffffff;strokeColor=none;" parent="1" vertex="1">
          <mxGeometry x="100" y="1135" width="110" height="100" as="geometry" />
        </mxCell>
        <mxCell id="gqOUeNTk_rE2bpNe1rsm-180" style="edgeStyle=orthogonalEdgeStyle;rounded=0;orthogonalLoop=1;jettySize=auto;html=1;fontSize=28;fontColor=#FFFFFF;startArrow=none;startFill=0;endArrow=none;endFill=0;" parent="1" source="6ellRIqbGZI2gtahciG1-26" target="6ellRIqbGZI2gtahciG1-5" edge="1">
          <mxGeometry relative="1" as="geometry" />
        </mxCell>
        <mxCell id="6ellRIqbGZI2gtahciG1-26" value="&amp;lt;fulfillment&amp;gt;&lt;br&gt;&lt;br&gt;&lt;span id=&quot;docs-internal-guid-30c552a8-7fff-c146-13df-889dcf74978a&quot;&gt;&lt;span style=&quot;font-family: &amp;quot;Noto Sans SC&amp;quot;, sans-serif; background-color: transparent; font-variant-numeric: normal; font-variant-east-asian: normal; vertical-align: baseline;&quot;&gt;&lt;font style=&quot;font-size: 12px;&quot;&gt;委托拍卖请求&lt;br&gt;created_at&lt;br&gt;&lt;/font&gt;&lt;/span&gt;&lt;/span&gt;" style="rounded=1;whiteSpace=wrap;html=1;fillColor=#d80073;fontColor=#ffffff;strokeColor=none;" parent="1" vertex="1">
          <mxGeometry x="750" y="985" width="90" height="90" as="geometry" />
        </mxCell>
        <mxCell id="6ellRIqbGZI2gtahciG1-27" value="&amp;lt;fulfillment&amp;gt;&lt;br&gt;&lt;br&gt;&lt;span id=&quot;docs-internal-guid-30c552a8-7fff-c146-13df-889dcf74978a&quot;&gt;&lt;span style=&quot;font-family: &amp;quot;Noto Sans SC&amp;quot;, sans-serif; background-color: transparent; font-variant-numeric: normal; font-variant-east-asian: normal; vertical-align: baseline;&quot;&gt;&lt;font style=&quot;font-size: 12px;&quot;&gt;委托拍卖确认&lt;br&gt;created_at&lt;br&gt;&lt;/font&gt;&lt;/span&gt;&lt;/span&gt;" style="rounded=1;whiteSpace=wrap;html=1;fillColor=#d80073;fontColor=#ffffff;strokeColor=none;" parent="1" vertex="1">
          <mxGeometry x="930" y="985" width="110" height="90" as="geometry" />
        </mxCell>
        <mxCell id="6ellRIqbGZI2gtahciG1-32" value="" style="line;strokeWidth=2;html=1;rounded=1;fontSize=12;fontColor=#FFFFFF;fillColor=#589C15;" parent="1" vertex="1">
          <mxGeometry x="840" y="1025" width="90" height="10" as="geometry" />
        </mxCell>
        <mxCell id="6ellRIqbGZI2gtahciG1-33" value="&lt;font color=&quot;#000000&quot;&gt;1&lt;/font&gt;" style="text;html=1;align=center;verticalAlign=middle;resizable=0;points=[];autosize=1;strokeColor=none;fillColor=none;fontSize=12;fontColor=#FFFFFF;" parent="1" vertex="1">
          <mxGeometry x="845" y="1005" width="30" height="30" as="geometry" />
        </mxCell>
        <mxCell id="6ellRIqbGZI2gtahciG1-35" value="&lt;font color=&quot;#000000&quot;&gt;1&lt;/font&gt;" style="text;html=1;align=center;verticalAlign=middle;resizable=0;points=[];autosize=1;strokeColor=none;fillColor=none;fontSize=12;fontColor=#FFFFFF;" parent="1" vertex="1">
          <mxGeometry x="890" y="1005" width="30" height="30" as="geometry" />
        </mxCell>
        <mxCell id="6ellRIqbGZI2gtahciG1-36" value="&amp;lt;fulfillment&amp;gt;&lt;br&gt;&lt;br&gt;&lt;span id=&quot;docs-internal-guid-30c552a8-7fff-c146-13df-889dcf74978a&quot;&gt;&lt;span style=&quot;font-family: &amp;quot;Noto Sans SC&amp;quot;, sans-serif; background-color: transparent; font-variant-numeric: normal; font-variant-east-asian: normal; vertical-align: baseline;&quot;&gt;&lt;font style=&quot;font-size: 12px;&quot;&gt;估值评价请求&lt;br&gt;created_at&lt;br&gt;&lt;/font&gt;&lt;/span&gt;&lt;/span&gt;" style="rounded=1;whiteSpace=wrap;html=1;fillColor=#d80073;fontColor=#ffffff;strokeColor=none;" parent="1" vertex="1">
          <mxGeometry x="750" y="860" width="100" height="90" as="geometry" />
        </mxCell>
        <mxCell id="gqOUeNTk_rE2bpNe1rsm-228" style="edgeStyle=orthogonalEdgeStyle;rounded=0;orthogonalLoop=1;jettySize=auto;html=1;entryX=0.5;entryY=1;entryDx=0;entryDy=0;dashed=1;fontSize=16;fontColor=#000000;startArrow=block;startFill=0;endArrow=none;endFill=0;" parent="1" source="6ellRIqbGZI2gtahciG1-37" target="gqOUeNTk_rE2bpNe1rsm-54" edge="1">
          <mxGeometry relative="1" as="geometry" />
        </mxCell>
        <mxCell id="6ellRIqbGZI2gtahciG1-37" value="&amp;lt; fulfillment&amp;gt;&lt;br&gt;&lt;br&gt;&lt;span id=&quot;docs-internal-guid-30c552a8-7fff-c146-13df-889dcf74978a&quot;&gt;&lt;span style=&quot;font-family: &amp;quot;Noto Sans SC&amp;quot;, sans-serif; background-color: transparent; font-variant-numeric: normal; font-variant-east-asian: normal; vertical-align: baseline;&quot;&gt;&lt;font style=&quot;font-size: 12px;&quot;&gt;估值评价请求确认&lt;br&gt;created_at&lt;br&gt;&lt;/font&gt;&lt;/span&gt;&lt;/span&gt;" style="rounded=1;whiteSpace=wrap;html=1;fillColor=#f0a30a;fontColor=#FFFFFF;strokeColor=#BD7000;" parent="1" vertex="1">
          <mxGeometry x="930" y="860" width="140" height="80" as="geometry" />
        </mxCell>
        <mxCell id="6ellRIqbGZI2gtahciG1-38" value="" style="line;strokeWidth=2;html=1;rounded=1;fontSize=12;fontColor=#FFFFFF;fillColor=#589C15;" parent="1" vertex="1">
          <mxGeometry x="850" y="900" width="80" height="10" as="geometry" />
        </mxCell>
        <mxCell id="6ellRIqbGZI2gtahciG1-39" value="&lt;font color=&quot;#000000&quot;&gt;1&lt;/font&gt;" style="text;html=1;align=center;verticalAlign=middle;resizable=0;points=[];autosize=1;strokeColor=none;fillColor=none;fontSize=12;fontColor=#FFFFFF;" parent="1" vertex="1">
          <mxGeometry x="845" y="880" width="30" height="30" as="geometry" />
        </mxCell>
        <mxCell id="6ellRIqbGZI2gtahciG1-40" value="&lt;font color=&quot;#000000&quot;&gt;1&lt;/font&gt;" style="text;html=1;align=center;verticalAlign=middle;resizable=0;points=[];autosize=1;strokeColor=none;fillColor=none;fontSize=12;fontColor=#FFFFFF;" parent="1" vertex="1">
          <mxGeometry x="890" y="880" width="30" height="30" as="geometry" />
        </mxCell>
        <mxCell id="6ellRIqbGZI2gtahciG1-41" value="委托方" style="rounded=1;whiteSpace=wrap;html=1;fontSize=12;fontColor=#FFFFFF;fillColor=#f0a30a;strokeColor=none;" parent="1" vertex="1">
          <mxGeometry x="820" y="940" width="70" height="30" as="geometry" />
        </mxCell>
        <mxCell id="6ellRIqbGZI2gtahciG1-45" value="拍卖平台" style="rounded=1;whiteSpace=wrap;html=1;fontSize=12;fontColor=#FFFFFF;fillColor=#f0a30a;strokeColor=none;" parent="1" vertex="1">
          <mxGeometry x="1020" y="930" width="70" height="30" as="geometry" />
        </mxCell>
        <mxCell id="gqOUeNTk_rE2bpNe1rsm-183" style="edgeStyle=orthogonalEdgeStyle;rounded=0;orthogonalLoop=1;jettySize=auto;html=1;fontSize=28;fontColor=#FFFFFF;startArrow=none;startFill=0;endArrow=none;endFill=0;" parent="1" source="6ellRIqbGZI2gtahciG1-48" target="6ellRIqbGZI2gtahciG1-5" edge="1">
          <mxGeometry relative="1" as="geometry" />
        </mxCell>
        <mxCell id="6ellRIqbGZI2gtahciG1-48" value="&amp;lt;fulfillment&amp;gt;&lt;br&gt;&lt;br&gt;&lt;span id=&quot;docs-internal-guid-30c552a8-7fff-c146-13df-889dcf74978a&quot;&gt;&lt;span style=&quot;font-family: &amp;quot;Noto Sans SC&amp;quot;, sans-serif; background-color: transparent; font-variant-numeric: normal; font-variant-east-asian: normal; vertical-align: baseline;&quot;&gt;&lt;font style=&quot;font-size: 12px;&quot;&gt;拍品保管请求&lt;br&gt;created_at&lt;br&gt;expired_at&lt;br&gt;&lt;/font&gt;&lt;/span&gt;&lt;/span&gt;" style="rounded=1;whiteSpace=wrap;html=1;fillColor=#d80073;fontColor=#ffffff;strokeColor=none;" parent="1" vertex="1">
          <mxGeometry x="735" y="1123" width="120" height="100" as="geometry" />
        </mxCell>
        <mxCell id="6ellRIqbGZI2gtahciG1-49" value="&amp;lt;fulfillment&amp;gt;&lt;br&gt;&lt;br&gt;&lt;span id=&quot;docs-internal-guid-30c552a8-7fff-c146-13df-889dcf74978a&quot;&gt;&lt;span style=&quot;font-family: &amp;quot;Noto Sans SC&amp;quot;, sans-serif; background-color: transparent; font-variant-numeric: normal; font-variant-east-asian: normal; vertical-align: baseline;&quot;&gt;&lt;font style=&quot;font-size: 12px;&quot;&gt;拍品保管确认&lt;br&gt;created_at&lt;br&gt;&lt;/font&gt;&lt;/span&gt;&lt;/span&gt;" style="rounded=1;whiteSpace=wrap;html=1;fillColor=#D80073;fontColor=#FFFFFF;strokeColor=#BD7000;" parent="1" vertex="1">
          <mxGeometry x="945" y="1128" width="110" height="90" as="geometry" />
        </mxCell>
        <mxCell id="6ellRIqbGZI2gtahciG1-50" value="" style="line;strokeWidth=2;html=1;rounded=1;fontSize=12;fontColor=#FFFFFF;fillColor=#589C15;" parent="1" vertex="1">
          <mxGeometry x="855" y="1168" width="90" height="10" as="geometry" />
        </mxCell>
        <mxCell id="6ellRIqbGZI2gtahciG1-51" value="&lt;font color=&quot;#000000&quot;&gt;1&lt;/font&gt;" style="text;html=1;align=center;verticalAlign=middle;resizable=0;points=[];autosize=1;strokeColor=none;fillColor=none;fontSize=12;fontColor=#FFFFFF;" parent="1" vertex="1">
          <mxGeometry x="845" y="1148" width="30" height="30" as="geometry" />
        </mxCell>
        <mxCell id="6ellRIqbGZI2gtahciG1-52" value="&lt;font color=&quot;#000000&quot;&gt;1&lt;/font&gt;" style="text;html=1;align=center;verticalAlign=middle;resizable=0;points=[];autosize=1;strokeColor=none;fillColor=none;fontSize=12;fontColor=#FFFFFF;" parent="1" vertex="1">
          <mxGeometry x="915" y="1148" width="30" height="30" as="geometry" />
        </mxCell>
        <mxCell id="gqOUeNTk_rE2bpNe1rsm-184" style="edgeStyle=orthogonalEdgeStyle;rounded=0;orthogonalLoop=1;jettySize=auto;html=1;entryX=0.75;entryY=1;entryDx=0;entryDy=0;fontSize=28;fontColor=#FFFFFF;startArrow=none;startFill=0;endArrow=none;endFill=0;" parent="1" source="6ellRIqbGZI2gtahciG1-57" target="6ellRIqbGZI2gtahciG1-5" edge="1">
          <mxGeometry relative="1" as="geometry" />
        </mxCell>
        <mxCell id="gqOUeNTk_rE2bpNe1rsm-101" style="edgeStyle=orthogonalEdgeStyle;rounded=0;orthogonalLoop=1;jettySize=auto;html=1;entryX=1;entryY=0.5;entryDx=0;entryDy=0;fontSize=28;fontColor=#FFFFFF;startArrow=none;startFill=0;endArrow=none;endFill=0;" parent="1" source="6ellRIqbGZI2gtahciG1-58" target="6ellRIqbGZI2gtahciG1-57" edge="1">
          <mxGeometry relative="1" as="geometry" />
        </mxCell>
        <mxCell id="gqOUeNTk_rE2bpNe1rsm-234" style="edgeStyle=orthogonalEdgeStyle;rounded=0;orthogonalLoop=1;jettySize=auto;html=1;entryX=1;entryY=0.5;entryDx=0;entryDy=0;dashed=1;fontSize=16;fontColor=#000000;startArrow=block;startFill=0;endArrow=none;endFill=0;" parent="1" source="6ellRIqbGZI2gtahciG1-58" target="gqOUeNTk_rE2bpNe1rsm-83" edge="1">
          <mxGeometry relative="1" as="geometry" />
        </mxCell>
        <mxCell id="6ellRIqbGZI2gtahciG1-58" value="&amp;lt;evidence&amp;gt;&lt;br&gt;&lt;br&gt;&lt;span id=&quot;docs-internal-guid-30c552a8-7fff-c146-13df-889dcf74978a&quot;&gt;&lt;span style=&quot;font-family: &amp;quot;Noto Sans SC&amp;quot;, sans-serif; background-color: transparent; font-variant-numeric: normal; font-variant-east-asian: normal; vertical-align: baseline;&quot;&gt;&lt;font style=&quot;font-size: 12px;&quot;&gt;拍品公告请求确认&lt;br&gt;created_at&lt;br&gt;&lt;/font&gt;&lt;/span&gt;&lt;/span&gt;" style="rounded=1;whiteSpace=wrap;html=1;fillColor=#f0a30a;fontColor=#FFFFFF;strokeColor=#BD7000;" parent="1" vertex="1">
          <mxGeometry x="939" y="1260" width="110" height="90" as="geometry" />
        </mxCell>
        <mxCell id="6ellRIqbGZI2gtahciG1-60" value="&lt;font color=&quot;#000000&quot;&gt;1&lt;/font&gt;" style="text;html=1;align=center;verticalAlign=middle;resizable=0;points=[];autosize=1;strokeColor=none;fillColor=none;fontSize=12;fontColor=#FFFFFF;" parent="1" vertex="1">
          <mxGeometry x="848" y="1270" width="30" height="30" as="geometry" />
        </mxCell>
        <mxCell id="6ellRIqbGZI2gtahciG1-61" value="&lt;font color=&quot;#000000&quot;&gt;1&lt;/font&gt;" style="text;html=1;align=center;verticalAlign=middle;resizable=0;points=[];autosize=1;strokeColor=none;fillColor=none;fontSize=12;fontColor=#FFFFFF;" parent="1" vertex="1">
          <mxGeometry x="895" y="1270" width="30" height="30" as="geometry" />
        </mxCell>
        <mxCell id="gqOUeNTk_rE2bpNe1rsm-185" style="edgeStyle=orthogonalEdgeStyle;rounded=0;orthogonalLoop=1;jettySize=auto;html=1;fontSize=28;fontColor=#FFFFFF;startArrow=none;startFill=0;endArrow=none;endFill=0;" parent="1" source="6ellRIqbGZI2gtahciG1-76" target="6ellRIqbGZI2gtahciG1-5" edge="1">
          <mxGeometry relative="1" as="geometry" />
        </mxCell>
        <mxCell id="6ellRIqbGZI2gtahciG1-76" value="&amp;lt;fulfillment&amp;gt;&lt;br&gt;&lt;br&gt;&lt;span id=&quot;docs-internal-guid-30c552a8-7fff-c146-13df-889dcf74978a&quot;&gt;&lt;span style=&quot;font-family: &amp;quot;Noto Sans SC&amp;quot;, sans-serif; background-color: transparent; font-variant-numeric: normal; font-variant-east-asian: normal; vertical-align: baseline;&quot;&gt;&lt;font style=&quot;font-size: 12px;&quot;&gt;扣除委托服务费请求&lt;br&gt;created_at&lt;br&gt;&lt;/font&gt;&lt;/span&gt;&lt;/span&gt;" style="rounded=1;whiteSpace=wrap;html=1;fillColor=#d80073;fontColor=#ffffff;strokeColor=none;" parent="1" vertex="1">
          <mxGeometry x="700" y="1415" width="140" height="80" as="geometry" />
        </mxCell>
        <mxCell id="gqOUeNTk_rE2bpNe1rsm-238" style="edgeStyle=orthogonalEdgeStyle;rounded=0;orthogonalLoop=1;jettySize=auto;html=1;dashed=1;fontSize=16;fontColor=#FFFFFF;startArrow=block;startFill=0;endArrow=none;endFill=0;" parent="1" source="6ellRIqbGZI2gtahciG1-77" target="gqOUeNTk_rE2bpNe1rsm-213" edge="1">
          <mxGeometry relative="1" as="geometry" />
        </mxCell>
        <mxCell id="6ellRIqbGZI2gtahciG1-77" value="&amp;lt;evidence&amp;gt;&lt;br&gt;&lt;br&gt;&lt;span id=&quot;docs-internal-guid-30c552a8-7fff-c146-13df-889dcf74978a&quot;&gt;&lt;span style=&quot;font-family: &amp;quot;Noto Sans SC&amp;quot;, sans-serif; background-color: transparent; font-variant-numeric: normal; font-variant-east-asian: normal; vertical-align: baseline;&quot;&gt;&lt;font style=&quot;font-size: 12px;&quot;&gt;扣除委托服务费请求确认&lt;br&gt;created_at&lt;br&gt;&lt;/font&gt;&lt;/span&gt;&lt;/span&gt;" style="rounded=1;whiteSpace=wrap;html=1;fillColor=#f0a30a;fontColor=#FFFFFF;strokeColor=#BD7000;" parent="1" vertex="1">
          <mxGeometry x="930" y="1415" width="150" height="80" as="geometry" />
        </mxCell>
        <mxCell id="6ellRIqbGZI2gtahciG1-78" value="" style="line;strokeWidth=2;html=1;rounded=1;fontSize=12;fontColor=#FFFFFF;fillColor=#589C15;" parent="1" vertex="1">
          <mxGeometry x="840" y="1450" width="90" height="10" as="geometry" />
        </mxCell>
        <mxCell id="6ellRIqbGZI2gtahciG1-79" value="&lt;font color=&quot;#000000&quot;&gt;1&lt;/font&gt;" style="text;html=1;align=center;verticalAlign=middle;resizable=0;points=[];autosize=1;strokeColor=none;fillColor=none;fontSize=12;fontColor=#FFFFFF;" parent="1" vertex="1">
          <mxGeometry x="845" y="1430" width="30" height="30" as="geometry" />
        </mxCell>
        <mxCell id="6ellRIqbGZI2gtahciG1-80" value="&lt;font color=&quot;#000000&quot;&gt;1&lt;/font&gt;" style="text;html=1;align=center;verticalAlign=middle;resizable=0;points=[];autosize=1;strokeColor=none;fillColor=none;fontSize=12;fontColor=#FFFFFF;" parent="1" vertex="1">
          <mxGeometry x="890" y="1430" width="30" height="30" as="geometry" />
        </mxCell>
        <mxCell id="6ellRIqbGZI2gtahciG1-92" value="用户委托拍卖上下文" style="text;html=1;align=center;verticalAlign=middle;resizable=0;points=[];autosize=1;strokeColor=none;fillColor=none;fontSize=28;fontColor=#000000;fontStyle=1" parent="1" vertex="1">
          <mxGeometry x="316" y="788" width="300" height="60" as="geometry" />
        </mxCell>
        <mxCell id="6ellRIqbGZI2gtahciG1-140" value="竞买上下文" style="text;html=1;align=center;verticalAlign=middle;resizable=0;points=[];autosize=1;strokeColor=none;fillColor=none;fontSize=28;fontColor=#000000;fontStyle=1" parent="1" vertex="1">
          <mxGeometry x="2396" y="1488" width="180" height="60" as="geometry" />
        </mxCell>
        <mxCell id="gqOUeNTk_rE2bpNe1rsm-222" style="edgeStyle=orthogonalEdgeStyle;rounded=0;orthogonalLoop=1;jettySize=auto;html=1;fontSize=16;fontColor=#000000;startArrow=none;startFill=0;endArrow=none;endFill=0;" parent="1" source="6ellRIqbGZI2gtahciG1-166" target="gqOUeNTk_rE2bpNe1rsm-213" edge="1">
          <mxGeometry relative="1" as="geometry" />
        </mxCell>
        <mxCell id="6ellRIqbGZI2gtahciG1-178" value="成交结算上下文" style="text;html=1;align=center;verticalAlign=middle;resizable=0;points=[];autosize=1;strokeColor=none;fillColor=none;fontSize=28;fontColor=#000000;" parent="1" vertex="1">
          <mxGeometry x="2382" y="2283" width="240" height="60" as="geometry" />
        </mxCell>
        <mxCell id="bYJwymjEN58D1QEqfzbn-130" style="edgeStyle=orthogonalEdgeStyle;rounded=0;orthogonalLoop=1;jettySize=auto;html=1;fontSize=16;fontColor=#000000;startArrow=none;startFill=0;endArrow=none;endFill=0;" edge="1" parent="1" source="6ellRIqbGZI2gtahciG1-181" target="bYJwymjEN58D1QEqfzbn-126">
          <mxGeometry relative="1" as="geometry" />
        </mxCell>
        <mxCell id="bYJwymjEN58D1QEqfzbn-131" style="edgeStyle=orthogonalEdgeStyle;rounded=0;orthogonalLoop=1;jettySize=auto;html=1;fontSize=16;fontColor=#000000;startArrow=none;startFill=0;endArrow=none;endFill=0;" edge="1" parent="1" source="6ellRIqbGZI2gtahciG1-181" target="bYJwymjEN58D1QEqfzbn-122">
          <mxGeometry relative="1" as="geometry" />
        </mxCell>
        <mxCell id="bYJwymjEN58D1QEqfzbn-149" style="edgeStyle=orthogonalEdgeStyle;rounded=0;orthogonalLoop=1;jettySize=auto;html=1;entryX=1;entryY=0.5;entryDx=0;entryDy=0;fontSize=16;fontColor=#000000;startArrow=none;startFill=0;endArrow=none;endFill=0;" edge="1" parent="1" source="6ellRIqbGZI2gtahciG1-181" target="6ellRIqbGZI2gtahciG1-192">
          <mxGeometry relative="1" as="geometry" />
        </mxCell>
        <mxCell id="bYJwymjEN58D1QEqfzbn-151" style="edgeStyle=orthogonalEdgeStyle;rounded=0;orthogonalLoop=1;jettySize=auto;html=1;entryX=1;entryY=0.75;entryDx=0;entryDy=0;fontSize=16;fontColor=#000000;startArrow=none;startFill=0;endArrow=none;endFill=0;" edge="1" parent="1" source="6ellRIqbGZI2gtahciG1-181" target="6ellRIqbGZI2gtahciG1-201">
          <mxGeometry relative="1" as="geometry" />
        </mxCell>
        <mxCell id="bYJwymjEN58D1QEqfzbn-152" style="edgeStyle=orthogonalEdgeStyle;rounded=0;orthogonalLoop=1;jettySize=auto;html=1;entryX=1;entryY=0.75;entryDx=0;entryDy=0;fontSize=16;fontColor=#000000;startArrow=none;startFill=0;endArrow=none;endFill=0;" edge="1" parent="1" source="6ellRIqbGZI2gtahciG1-181" target="bYJwymjEN58D1QEqfzbn-138">
          <mxGeometry relative="1" as="geometry" />
        </mxCell>
        <mxCell id="bYJwymjEN58D1QEqfzbn-155" style="edgeStyle=orthogonalEdgeStyle;rounded=0;orthogonalLoop=1;jettySize=auto;html=1;fontSize=16;fontColor=#000000;startArrow=none;startFill=0;endArrow=none;endFill=0;" edge="1" parent="1" source="6ellRIqbGZI2gtahciG1-181" target="6ellRIqbGZI2gtahciG1-187">
          <mxGeometry relative="1" as="geometry" />
        </mxCell>
        <mxCell id="6ellRIqbGZI2gtahciG1-181" value="&amp;lt;Contract&amp;gt;&lt;br&gt;&lt;br&gt;&lt;span id=&quot;docs-internal-guid-30c552a8-7fff-c146-13df-889dcf74978a&quot;&gt;&lt;span style=&quot;font-family: &amp;quot;Noto Sans SC&amp;quot;, sans-serif; background-color: transparent; font-variant-numeric: normal; font-variant-east-asian: normal; vertical-align: baseline;&quot;&gt;&lt;font style=&quot;font-size: 12px;&quot;&gt;司机载客合约&lt;br&gt;&lt;br&gt;&lt;/font&gt;&lt;/span&gt;&lt;/span&gt;" style="rounded=1;whiteSpace=wrap;html=1;fillColor=#d80073;fontColor=#ffffff;strokeColor=none;arcSize=12;" parent="1" vertex="1">
          <mxGeometry x="2386" y="2127" width="91" height="71" as="geometry" />
        </mxCell>
        <mxCell id="6ellRIqbGZI2gtahciG1-186" value="&amp;lt;Fulfillment&amp;gt;&lt;br&gt;&lt;br&gt;&lt;span id=&quot;docs-internal-guid-30c552a8-7fff-c146-13df-889dcf74978a&quot;&gt;&lt;span style=&quot;font-family: &amp;quot;Noto Sans SC&amp;quot;, sans-serif; background-color: transparent; font-variant-numeric: normal; font-variant-east-asian: normal; vertical-align: baseline;&quot;&gt;&lt;font style=&quot;font-size: 12px;&quot;&gt;提货请求确认&lt;br&gt;created_at&lt;br&gt;expired_at&lt;br&gt;&lt;/font&gt;&lt;/span&gt;&lt;/span&gt;" style="rounded=1;whiteSpace=wrap;html=1;fillColor=#d80073;fontColor=#ffffff;strokeColor=none;" parent="1" vertex="1">
          <mxGeometry x="1961" y="2112" width="90" height="90" as="geometry" />
        </mxCell>
        <mxCell id="bYJwymjEN58D1QEqfzbn-144" style="edgeStyle=orthogonalEdgeStyle;rounded=0;orthogonalLoop=1;jettySize=auto;html=1;entryX=1;entryY=0.5;entryDx=0;entryDy=0;fontSize=16;fontColor=#000000;startArrow=none;startFill=0;endArrow=none;endFill=0;" edge="1" parent="1" source="6ellRIqbGZI2gtahciG1-187" target="6ellRIqbGZI2gtahciG1-186">
          <mxGeometry relative="1" as="geometry" />
        </mxCell>
        <mxCell id="6ellRIqbGZI2gtahciG1-187" value="&amp;lt;fulfillment&amp;gt;&lt;br&gt;&lt;br&gt;&lt;span id=&quot;docs-internal-guid-30c552a8-7fff-c146-13df-889dcf74978a&quot;&gt;&lt;span style=&quot;font-family: &amp;quot;Noto Sans SC&amp;quot;, sans-serif; background-color: transparent; font-variant-numeric: normal; font-variant-east-asian: normal; vertical-align: baseline;&quot;&gt;&lt;font style=&quot;font-size: 12px;&quot;&gt;提货请求&lt;br&gt;created_at&lt;br&gt;expired_at&lt;br&gt;&lt;/font&gt;&lt;/span&gt;&lt;/span&gt;" style="rounded=1;whiteSpace=wrap;html=1;fillColor=#d80073;fontColor=#ffffff;strokeColor=none;" parent="1" vertex="1">
          <mxGeometry x="2141" y="2112" width="110" height="90" as="geometry" />
        </mxCell>
        <mxCell id="6ellRIqbGZI2gtahciG1-189" value="&lt;font color=&quot;#000000&quot;&gt;1&lt;/font&gt;" style="text;html=1;align=center;verticalAlign=middle;resizable=0;points=[];autosize=1;strokeColor=none;fillColor=none;fontSize=12;fontColor=#FFFFFF;" parent="1" vertex="1">
          <mxGeometry x="2056" y="2132" width="30" height="30" as="geometry" />
        </mxCell>
        <mxCell id="6ellRIqbGZI2gtahciG1-190" value="&lt;font color=&quot;#000000&quot;&gt;1&lt;/font&gt;" style="text;html=1;align=center;verticalAlign=middle;resizable=0;points=[];autosize=1;strokeColor=none;fillColor=none;fontSize=12;fontColor=#FFFFFF;" parent="1" vertex="1">
          <mxGeometry x="2101" y="2132" width="30" height="30" as="geometry" />
        </mxCell>
        <mxCell id="bYJwymjEN58D1QEqfzbn-157" style="edgeStyle=orthogonalEdgeStyle;rounded=0;orthogonalLoop=1;jettySize=auto;html=1;dashed=1;fontSize=16;fontColor=#000000;startArrow=block;startFill=0;endArrow=none;endFill=0;" edge="1" parent="1" source="6ellRIqbGZI2gtahciG1-191" target="gqOUeNTk_rE2bpNe1rsm-213">
          <mxGeometry relative="1" as="geometry" />
        </mxCell>
        <mxCell id="6ellRIqbGZI2gtahciG1-191" value="&amp;lt;fulfillment&amp;gt;&lt;br&gt;&lt;br&gt;&lt;span id=&quot;docs-internal-guid-30c552a8-7fff-c146-13df-889dcf74978a&quot;&gt;&lt;span style=&quot;font-family: &amp;quot;Noto Sans SC&amp;quot;, sans-serif; background-color: transparent; font-variant-numeric: normal; font-variant-east-asian: normal; vertical-align: baseline;&quot;&gt;&lt;font style=&quot;font-size: 12px;&quot;&gt;支付尾款请求确认&lt;br&gt;created_at&lt;br&gt;expired_at&lt;br&gt;&lt;/font&gt;&lt;/span&gt;&lt;/span&gt;" style="rounded=1;whiteSpace=wrap;html=1;fillColor=#d80073;fontColor=#ffffff;strokeColor=none;" parent="1" vertex="1">
          <mxGeometry x="1954" y="1990" width="115" height="85" as="geometry" />
        </mxCell>
        <mxCell id="bYJwymjEN58D1QEqfzbn-145" style="edgeStyle=orthogonalEdgeStyle;rounded=0;orthogonalLoop=1;jettySize=auto;html=1;fontSize=16;fontColor=#000000;startArrow=none;startFill=0;endArrow=none;endFill=0;" edge="1" parent="1" source="6ellRIqbGZI2gtahciG1-192" target="6ellRIqbGZI2gtahciG1-191">
          <mxGeometry relative="1" as="geometry" />
        </mxCell>
        <mxCell id="6ellRIqbGZI2gtahciG1-192" value="&amp;lt;fulfillment &amp;gt;&lt;br&gt;&lt;br&gt;&lt;span id=&quot;docs-internal-guid-30c552a8-7fff-c146-13df-889dcf74978a&quot;&gt;&lt;span style=&quot;font-family: &amp;quot;Noto Sans SC&amp;quot;, sans-serif; background-color: transparent; font-variant-numeric: normal; font-variant-east-asian: normal; vertical-align: baseline;&quot;&gt;&lt;font style=&quot;font-size: 12px;&quot;&gt;支付尾款请求&lt;br&gt;created_at&lt;br&gt;expired_at&lt;br&gt;&lt;/font&gt;&lt;/span&gt;&lt;/span&gt;" style="rounded=1;whiteSpace=wrap;html=1;fillColor=#d80073;fontColor=#ffffff;strokeColor=none;" parent="1" vertex="1">
          <mxGeometry x="2141" y="1987" width="120" height="90" as="geometry" />
        </mxCell>
        <mxCell id="6ellRIqbGZI2gtahciG1-196" value="买受人" style="rounded=1;whiteSpace=wrap;html=1;fontSize=12;fontColor=#FFFFFF;fillColor=#f0a30a;strokeColor=none;" parent="1" vertex="1">
          <mxGeometry x="1911" y="2063" width="70" height="30" as="geometry" />
        </mxCell>
        <mxCell id="6ellRIqbGZI2gtahciG1-197" value="拍卖平台" style="rounded=1;whiteSpace=wrap;html=1;fontSize=12;fontColor=#FFFFFF;fillColor=#f0a30a;strokeColor=none;" parent="1" vertex="1">
          <mxGeometry x="2098" y="2057" width="70" height="30" as="geometry" />
        </mxCell>
        <mxCell id="6ellRIqbGZI2gtahciG1-198" value="拍卖平台" style="rounded=1;whiteSpace=wrap;html=1;fontSize=12;fontColor=#FFFFFF;fillColor=#f0a30a;strokeColor=none;" parent="1" vertex="1">
          <mxGeometry x="1901" y="2190" width="70" height="30" as="geometry" />
        </mxCell>
        <mxCell id="6ellRIqbGZI2gtahciG1-199" value="买受人" style="rounded=1;whiteSpace=wrap;html=1;fontSize=12;fontColor=#FFFFFF;fillColor=#f0a30a;strokeColor=none;" parent="1" vertex="1">
          <mxGeometry x="2092" y="2190" width="70" height="30" as="geometry" />
        </mxCell>
        <mxCell id="6ellRIqbGZI2gtahciG1-200" value="&amp;lt;fulfillment&amp;gt;&lt;br&gt;&lt;br&gt;&lt;span id=&quot;docs-internal-guid-30c552a8-7fff-c146-13df-889dcf74978a&quot;&gt;&lt;span style=&quot;font-family: &amp;quot;Noto Sans SC&amp;quot;, sans-serif; background-color: transparent; font-variant-numeric: normal; font-variant-east-asian: normal; vertical-align: baseline;&quot;&gt;&lt;font style=&quot;font-size: 12px;&quot;&gt;逾期请求确认&lt;br&gt;created_at&lt;br&gt;expired_at&lt;br&gt;&lt;/font&gt;&lt;/span&gt;&lt;/span&gt;" style="rounded=1;whiteSpace=wrap;html=1;fillColor=#d80073;fontColor=#ffffff;strokeColor=none;" parent="1" vertex="1">
          <mxGeometry x="1961" y="2267" width="90" height="90" as="geometry" />
        </mxCell>
        <mxCell id="6ellRIqbGZI2gtahciG1-201" value="&amp;lt;fulfillment&amp;gt;&lt;br&gt;&lt;br&gt;&lt;span id=&quot;docs-internal-guid-30c552a8-7fff-c146-13df-889dcf74978a&quot;&gt;&lt;span style=&quot;font-family: &amp;quot;Noto Sans SC&amp;quot;, sans-serif; background-color: transparent; font-variant-numeric: normal; font-variant-east-asian: normal; vertical-align: baseline;&quot;&gt;&lt;font style=&quot;font-size: 12px;&quot;&gt;逾期请求&lt;br&gt;created_at&lt;br&gt;expired_at&lt;br&gt;&lt;/font&gt;&lt;/span&gt;&lt;/span&gt;" style="rounded=1;whiteSpace=wrap;html=1;fillColor=#d80073;fontColor=#ffffff;strokeColor=none;" parent="1" vertex="1">
          <mxGeometry x="2141" y="2267" width="110" height="90" as="geometry" />
        </mxCell>
        <mxCell id="6ellRIqbGZI2gtahciG1-202" value="" style="line;strokeWidth=2;html=1;rounded=1;fontSize=12;fontColor=#FFFFFF;fillColor=#589C15;" parent="1" vertex="1">
          <mxGeometry x="2051" y="2307" width="90" height="10" as="geometry" />
        </mxCell>
        <mxCell id="6ellRIqbGZI2gtahciG1-203" value="&lt;font color=&quot;#000000&quot;&gt;1&lt;/font&gt;" style="text;html=1;align=center;verticalAlign=middle;resizable=0;points=[];autosize=1;strokeColor=none;fillColor=none;fontSize=12;fontColor=#FFFFFF;" parent="1" vertex="1">
          <mxGeometry x="2051" y="2286" width="30" height="30" as="geometry" />
        </mxCell>
        <mxCell id="6ellRIqbGZI2gtahciG1-204" value="&lt;font color=&quot;#000000&quot;&gt;1&lt;/font&gt;" style="text;html=1;align=center;verticalAlign=middle;resizable=0;points=[];autosize=1;strokeColor=none;fillColor=none;fontSize=12;fontColor=#FFFFFF;" parent="1" vertex="1">
          <mxGeometry x="2101" y="2287" width="30" height="30" as="geometry" />
        </mxCell>
        <mxCell id="6ellRIqbGZI2gtahciG1-205" value="买受人" style="rounded=1;whiteSpace=wrap;html=1;fontSize=12;fontColor=#FFFFFF;fillColor=#f0a30a;strokeColor=none;" parent="1" vertex="1">
          <mxGeometry x="1898" y="2342" width="70" height="30" as="geometry" />
        </mxCell>
        <mxCell id="6ellRIqbGZI2gtahciG1-206" value="拍卖平台" style="rounded=1;whiteSpace=wrap;html=1;fontSize=12;fontColor=#FFFFFF;fillColor=#f0a30a;strokeColor=none;" parent="1" vertex="1">
          <mxGeometry x="2095" y="2346" width="70" height="30" as="geometry" />
        </mxCell>
        <mxCell id="gqOUeNTk_rE2bpNe1rsm-7" style="edgeStyle=orthogonalEdgeStyle;rounded=0;orthogonalLoop=1;jettySize=auto;html=1;fontColor=#FFFFFF;endArrow=none;endFill=0;" parent="1" source="gqOUeNTk_rE2bpNe1rsm-6" target="6ellRIqbGZI2gtahciG1-21" edge="1">
          <mxGeometry relative="1" as="geometry" />
        </mxCell>
        <mxCell id="gqOUeNTk_rE2bpNe1rsm-16" style="edgeStyle=orthogonalEdgeStyle;rounded=0;orthogonalLoop=1;jettySize=auto;html=1;exitX=0.5;exitY=0;exitDx=0;exitDy=0;dashed=1;fontColor=#000000;startArrow=classic;startFill=0;endArrow=none;endFill=0;" parent="1" source="gqOUeNTk_rE2bpNe1rsm-6" target="gqOUeNTk_rE2bpNe1rsm-11" edge="1">
          <mxGeometry relative="1" as="geometry" />
        </mxCell>
        <mxCell id="gqOUeNTk_rE2bpNe1rsm-6" value="&amp;lt;party&amp;gt;&lt;br&gt;&lt;br&gt;&lt;span id=&quot;docs-internal-guid-30c552a8-7fff-c146-13df-889dcf74978a&quot;&gt;&lt;span style=&quot;font-family: &amp;quot;Noto Sans SC&amp;quot;, sans-serif; background-color: transparent; font-variant-numeric: normal; font-variant-east-asian: normal; vertical-align: baseline;&quot;&gt;&lt;font style=&quot;font-size: 12px;&quot;&gt;&lt;span style=&quot;font-family: Helvetica;&quot;&gt;委托方&lt;/span&gt;&lt;br&gt;&lt;/font&gt;&lt;/span&gt;&lt;/span&gt;" style="rounded=1;whiteSpace=wrap;html=1;fillColor=#f0a30a;fontColor=#FFFFFF;strokeColor=none;" parent="1" vertex="1">
          <mxGeometry x="105" y="1000" width="100" height="60" as="geometry" />
        </mxCell>
        <mxCell id="gqOUeNTk_rE2bpNe1rsm-8" value="1" style="text;html=1;align=center;verticalAlign=middle;resizable=0;points=[];autosize=1;strokeColor=none;fillColor=none;fontColor=#000000;" parent="1" vertex="1">
          <mxGeometry x="130" y="1055" width="40" height="40" as="geometry" />
        </mxCell>
        <mxCell id="gqOUeNTk_rE2bpNe1rsm-9" value="1" style="text;html=1;align=center;verticalAlign=middle;resizable=0;points=[];autosize=1;strokeColor=none;fillColor=none;fontColor=#000000;" parent="1" vertex="1">
          <mxGeometry x="130" y="1095" width="40" height="40" as="geometry" />
        </mxCell>
        <mxCell id="gqOUeNTk_rE2bpNe1rsm-11" value="&amp;lt;party&amp;gt;&lt;br&gt;&lt;br&gt;&lt;span id=&quot;docs-internal-guid-30c552a8-7fff-c146-13df-889dcf74978a&quot;&gt;&lt;span style=&quot;font-family: &amp;quot;Noto Sans SC&amp;quot;, sans-serif; background-color: transparent; font-variant-numeric: normal; font-variant-east-asian: normal; vertical-align: baseline;&quot;&gt;&lt;font style=&quot;font-size: 12px;&quot;&gt;注册用户&lt;br&gt;&lt;/font&gt;&lt;/span&gt;&lt;/span&gt;" style="rounded=1;whiteSpace=wrap;html=1;fillColor=#60a917;fontColor=#ffffff;strokeColor=#2D7600;" parent="1" vertex="1">
          <mxGeometry x="105" y="885" width="100" height="60" as="geometry" />
        </mxCell>
        <mxCell id="gqOUeNTk_rE2bpNe1rsm-22" style="edgeStyle=orthogonalEdgeStyle;rounded=0;orthogonalLoop=1;jettySize=auto;html=1;exitX=0.5;exitY=0;exitDx=0;exitDy=0;dashed=1;fontColor=#000000;startArrow=classic;startFill=0;endArrow=none;endFill=0;" parent="1" source="gqOUeNTk_rE2bpNe1rsm-23" target="gqOUeNTk_rE2bpNe1rsm-26" edge="1">
          <mxGeometry relative="1" as="geometry" />
        </mxCell>
        <mxCell id="gqOUeNTk_rE2bpNe1rsm-23" value="&amp;lt;party&amp;gt;&lt;br&gt;&lt;br&gt;&lt;span id=&quot;docs-internal-guid-30c552a8-7fff-c146-13df-889dcf74978a&quot;&gt;&lt;span style=&quot;font-family: &amp;quot;Noto Sans SC&amp;quot;, sans-serif; background-color: transparent; font-variant-numeric: normal; font-variant-east-asian: normal; vertical-align: baseline;&quot;&gt;&lt;font style=&quot;font-size: 12px;&quot;&gt;拍卖平台&lt;br&gt;&lt;/font&gt;&lt;/span&gt;&lt;/span&gt;" style="rounded=1;whiteSpace=wrap;html=1;fillColor=#f0a30a;fontColor=#FFFFFF;strokeColor=none;" parent="1" vertex="1">
          <mxGeometry x="330" y="1000" width="100" height="60" as="geometry" />
        </mxCell>
        <mxCell id="gqOUeNTk_rE2bpNe1rsm-24" value="1" style="text;html=1;align=center;verticalAlign=middle;resizable=0;points=[];autosize=1;strokeColor=none;fillColor=none;fontColor=#000000;" parent="1" vertex="1">
          <mxGeometry x="340" y="1060" width="40" height="40" as="geometry" />
        </mxCell>
        <mxCell id="gqOUeNTk_rE2bpNe1rsm-25" value="1" style="text;html=1;align=center;verticalAlign=middle;resizable=0;points=[];autosize=1;strokeColor=none;fillColor=none;fontColor=#000000;" parent="1" vertex="1">
          <mxGeometry x="340" y="1103" width="40" height="40" as="geometry" />
        </mxCell>
        <mxCell id="gqOUeNTk_rE2bpNe1rsm-26" value="&amp;lt;party&amp;gt;&lt;br&gt;&lt;br&gt;&lt;span id=&quot;docs-internal-guid-30c552a8-7fff-c146-13df-889dcf74978a&quot;&gt;&lt;span style=&quot;font-family: &amp;quot;Noto Sans SC&amp;quot;, sans-serif; background-color: transparent; font-variant-numeric: normal; font-variant-east-asian: normal; vertical-align: baseline;&quot;&gt;&lt;font style=&quot;font-size: 12px;&quot;&gt;拍一拍拍卖平台&lt;br&gt;&lt;/font&gt;&lt;/span&gt;&lt;/span&gt;" style="rounded=1;whiteSpace=wrap;html=1;fillColor=#60a917;fontColor=#ffffff;strokeColor=#2D7600;" parent="1" vertex="1">
          <mxGeometry x="330" y="885" width="100" height="60" as="geometry" />
        </mxCell>
        <mxCell id="gqOUeNTk_rE2bpNe1rsm-27" style="edgeStyle=orthogonalEdgeStyle;rounded=0;orthogonalLoop=1;jettySize=auto;html=1;fontColor=#FFFFFF;endArrow=none;endFill=0;" parent="1" edge="1">
          <mxGeometry relative="1" as="geometry">
            <mxPoint x="379.41" y="1062.5" as="sourcePoint" />
            <mxPoint x="379.41" y="1142.5" as="targetPoint" />
          </mxGeometry>
        </mxCell>
        <mxCell id="gqOUeNTk_rE2bpNe1rsm-29" value="1" style="text;html=1;align=center;verticalAlign=middle;resizable=0;points=[];autosize=1;strokeColor=none;fillColor=none;fontColor=#000000;" parent="1" vertex="1">
          <mxGeometry x="213" y="1146" width="40" height="40" as="geometry" />
        </mxCell>
        <mxCell id="gqOUeNTk_rE2bpNe1rsm-30" value="1" style="text;html=1;align=center;verticalAlign=middle;resizable=0;points=[];autosize=1;strokeColor=none;fillColor=none;fontColor=#000000;" parent="1" vertex="1">
          <mxGeometry x="280" y="1148" width="40" height="40" as="geometry" />
        </mxCell>
        <mxCell id="gqOUeNTk_rE2bpNe1rsm-31" value="1" style="text;html=1;align=center;verticalAlign=middle;resizable=0;points=[];autosize=1;strokeColor=none;fillColor=none;fontColor=#000000;" parent="1" vertex="1">
          <mxGeometry x="430" y="1143" width="40" height="40" as="geometry" />
        </mxCell>
        <mxCell id="gqOUeNTk_rE2bpNe1rsm-34" value="1" style="text;html=1;align=center;verticalAlign=middle;resizable=0;points=[];autosize=1;strokeColor=none;fillColor=none;fontColor=#000000;" parent="1" vertex="1">
          <mxGeometry x="500" y="1143" width="40" height="40" as="geometry" />
        </mxCell>
        <mxCell id="gqOUeNTk_rE2bpNe1rsm-47" value="拍卖平台" style="rounded=1;whiteSpace=wrap;html=1;fontSize=12;fontColor=#FFFFFF;fillColor=#f0a30a;strokeColor=none;" parent="1" vertex="1">
          <mxGeometry x="805" y="1060" width="70" height="30" as="geometry" />
        </mxCell>
        <mxCell id="gqOUeNTk_rE2bpNe1rsm-48" value="委托方" style="rounded=1;whiteSpace=wrap;html=1;fontSize=12;fontColor=#FFFFFF;fillColor=#f0a30a;strokeColor=none;" parent="1" vertex="1">
          <mxGeometry x="1000" y="1060" width="70" height="30" as="geometry" />
        </mxCell>
        <mxCell id="gqOUeNTk_rE2bpNe1rsm-50" value="&amp;lt;domin&amp;gt;&lt;br&gt;&lt;br&gt;&lt;span id=&quot;docs-internal-guid-30c552a8-7fff-c146-13df-889dcf74978a&quot;&gt;&lt;span style=&quot;font-family: &amp;quot;Noto Sans SC&amp;quot;, sans-serif; background-color: transparent; font-variant-numeric: normal; font-variant-east-asian: normal; vertical-align: baseline;&quot;&gt;&lt;font style=&quot;font-size: 12px;&quot;&gt;拍卖方案计算逻辑&lt;br&gt;&lt;/font&gt;&lt;/span&gt;&lt;/span&gt;" style="rounded=1;whiteSpace=wrap;html=1;fillColor=#f0a30a;fontColor=#FFFFFF;strokeColor=none;" parent="1" vertex="1">
          <mxGeometry x="537" y="907" width="140" height="60" as="geometry" />
        </mxCell>
        <mxCell id="gqOUeNTk_rE2bpNe1rsm-55" style="edgeStyle=orthogonalEdgeStyle;rounded=0;orthogonalLoop=1;jettySize=auto;html=1;fontColor=#FFFFFF;startArrow=none;startFill=0;endArrow=none;endFill=0;" parent="1" source="gqOUeNTk_rE2bpNe1rsm-52" target="gqOUeNTk_rE2bpNe1rsm-54" edge="1">
          <mxGeometry relative="1" as="geometry" />
        </mxCell>
        <mxCell id="gqOUeNTk_rE2bpNe1rsm-52" value="&amp;lt;3rd system&amp;gt;&lt;br&gt;&lt;br&gt;&lt;span id=&quot;docs-internal-guid-30c552a8-7fff-c146-13df-889dcf74978a&quot;&gt;&lt;span style=&quot;font-family: &amp;quot;Noto Sans SC&amp;quot;, sans-serif; background-color: transparent; font-variant-numeric: normal; font-variant-east-asian: normal; vertical-align: baseline;&quot;&gt;&lt;font style=&quot;font-size: 12px;&quot;&gt;拍品评价系统&lt;br&gt;&lt;/font&gt;&lt;/span&gt;&lt;/span&gt;" style="rounded=1;whiteSpace=wrap;html=1;fillColor=#f0a30a;fontColor=#FFFFFF;strokeColor=#BD7000;" parent="1" vertex="1">
          <mxGeometry x="1456" y="877" width="120" height="60" as="geometry" />
        </mxCell>
        <mxCell id="gqOUeNTk_rE2bpNe1rsm-54" value="&amp;lt;evidence&amp;gt;&lt;br&gt;&lt;br&gt;&lt;span id=&quot;docs-internal-guid-30c552a8-7fff-c146-13df-889dcf74978a&quot;&gt;&lt;span style=&quot;font-family: &amp;quot;Noto Sans SC&amp;quot;, sans-serif; background-color: transparent; font-variant-numeric: normal; font-variant-east-asian: normal; vertical-align: baseline;&quot;&gt;&lt;font style=&quot;font-size: 12px;&quot;&gt;估值评价请求确认&lt;br&gt;created_at&lt;br&gt;&lt;/font&gt;&lt;/span&gt;&lt;/span&gt;" style="rounded=1;whiteSpace=wrap;html=1;fillColor=#d80073;fontColor=#ffffff;strokeColor=none;" parent="1" vertex="1">
          <mxGeometry x="1446" y="975.5" width="140" height="75" as="geometry" />
        </mxCell>
        <mxCell id="gqOUeNTk_rE2bpNe1rsm-57" value="&lt;font color=&quot;#000000&quot; style=&quot;font-size: 28px;&quot;&gt;拍品估值评价上下文&lt;/font&gt;" style="text;html=1;strokeColor=none;fillColor=none;align=center;verticalAlign=middle;whiteSpace=wrap;rounded=0;fontColor=#FFFFFF;fontSize=16;fontStyle=1" parent="1" vertex="1">
          <mxGeometry x="1389" y="779.5" width="286" height="36" as="geometry" />
        </mxCell>
        <mxCell id="gqOUeNTk_rE2bpNe1rsm-68" value="委托方" style="rounded=1;whiteSpace=wrap;html=1;fontSize=12;fontColor=#FFFFFF;fillColor=#f0a30a;strokeColor=none;" parent="1" vertex="1">
          <mxGeometry x="825" y="1198" width="70" height="30" as="geometry" />
        </mxCell>
        <mxCell id="gqOUeNTk_rE2bpNe1rsm-71" value="拍卖平台" style="rounded=1;whiteSpace=wrap;html=1;fontSize=12;fontColor=#FFFFFF;fillColor=#f0a30a;strokeColor=none;" parent="1" vertex="1">
          <mxGeometry x="1015" y="1205" width="70" height="30" as="geometry" />
        </mxCell>
        <mxCell id="gqOUeNTk_rE2bpNe1rsm-79" value="拍卖平台" style="rounded=1;whiteSpace=wrap;html=1;fontSize=12;fontColor=#FFFFFF;fillColor=#f0a30a;strokeColor=none;" parent="1" vertex="1">
          <mxGeometry x="1022" y="1340" width="70" height="30" as="geometry" />
        </mxCell>
        <mxCell id="gqOUeNTk_rE2bpNe1rsm-81" style="edgeStyle=orthogonalEdgeStyle;rounded=0;orthogonalLoop=1;jettySize=auto;html=1;fontColor=#FFFFFF;startArrow=none;startFill=0;endArrow=none;endFill=0;" parent="1" source="gqOUeNTk_rE2bpNe1rsm-82" target="gqOUeNTk_rE2bpNe1rsm-83" edge="1">
          <mxGeometry relative="1" as="geometry" />
        </mxCell>
        <mxCell id="gqOUeNTk_rE2bpNe1rsm-82" value="&amp;lt;3rd system&amp;gt;&lt;br&gt;&lt;br&gt;&lt;span id=&quot;docs-internal-guid-30c552a8-7fff-c146-13df-889dcf74978a&quot;&gt;&lt;span style=&quot;font-family: &amp;quot;Noto Sans SC&amp;quot;, sans-serif; background-color: transparent; font-variant-numeric: normal; font-variant-east-asian: normal; vertical-align: baseline;&quot;&gt;&lt;font style=&quot;font-size: 12px;&quot;&gt;拍品信息系统&lt;br&gt;&lt;/font&gt;&lt;/span&gt;&lt;/span&gt;" style="rounded=1;whiteSpace=wrap;html=1;fillColor=#f0a30a;fontColor=#FFFFFF;strokeColor=#BD7000;" parent="1" vertex="1">
          <mxGeometry x="1472" y="1740" width="120" height="60" as="geometry" />
        </mxCell>
        <mxCell id="gqOUeNTk_rE2bpNe1rsm-83" value="&amp;lt;evidence&amp;gt;&lt;br&gt;&lt;br&gt;&lt;span id=&quot;docs-internal-guid-30c552a8-7fff-c146-13df-889dcf74978a&quot;&gt;&lt;span style=&quot;font-family: &amp;quot;Noto Sans SC&amp;quot;, sans-serif; background-color: transparent; font-variant-numeric: normal; font-variant-east-asian: normal; vertical-align: baseline;&quot;&gt;&lt;font style=&quot;font-size: 12px;&quot;&gt;拍品公告请求确认&lt;br&gt;created_at&lt;br&gt;&lt;/font&gt;&lt;/span&gt;&lt;/span&gt;" style="rounded=1;whiteSpace=wrap;html=1;fillColor=#d80073;fontColor=#ffffff;strokeColor=none;" parent="1" vertex="1">
          <mxGeometry x="1462" y="1825" width="140" height="75" as="geometry" />
        </mxCell>
        <mxCell id="gqOUeNTk_rE2bpNe1rsm-85" value="&lt;font color=&quot;#000000&quot; style=&quot;font-size: 28px;&quot;&gt;拍品信息管理上下文&lt;/font&gt;" style="text;html=1;strokeColor=none;fillColor=none;align=center;verticalAlign=middle;whiteSpace=wrap;rounded=0;fontColor=#FFFFFF;fontSize=16;fontStyle=1" parent="1" vertex="1">
          <mxGeometry x="1407" y="1680" width="270" height="33" as="geometry" />
        </mxCell>
        <mxCell id="gqOUeNTk_rE2bpNe1rsm-89" value="拍卖平台" style="rounded=1;whiteSpace=wrap;html=1;fontSize=12;fontColor=#FFFFFF;fillColor=#f0a30a;strokeColor=none;" parent="1" vertex="1">
          <mxGeometry x="805" y="1485" width="70" height="30" as="geometry" />
        </mxCell>
        <mxCell id="gqOUeNTk_rE2bpNe1rsm-90" value="委托方" style="rounded=1;whiteSpace=wrap;html=1;fontSize=12;fontColor=#FFFFFF;fillColor=#f0a30a;strokeColor=none;" parent="1" vertex="1">
          <mxGeometry x="1040" y="1485" width="70" height="30" as="geometry" />
        </mxCell>
        <mxCell id="gqOUeNTk_rE2bpNe1rsm-186" style="edgeStyle=orthogonalEdgeStyle;rounded=0;orthogonalLoop=1;jettySize=auto;html=1;fontSize=28;fontColor=#FFFFFF;startArrow=none;startFill=0;endArrow=none;endFill=0;" parent="1" source="gqOUeNTk_rE2bpNe1rsm-93" target="6ellRIqbGZI2gtahciG1-5" edge="1">
          <mxGeometry relative="1" as="geometry" />
        </mxCell>
        <mxCell id="gqOUeNTk_rE2bpNe1rsm-93" value="&amp;lt;fulfillment&amp;gt;&lt;br&gt;&lt;br&gt;&lt;span id=&quot;docs-internal-guid-30c552a8-7fff-c146-13df-889dcf74978a&quot;&gt;&lt;span style=&quot;font-family: &amp;quot;Noto Sans SC&amp;quot;, sans-serif; background-color: transparent; font-variant-numeric: normal; font-variant-east-asian: normal; vertical-align: baseline;&quot;&gt;&lt;font style=&quot;font-size: 12px;&quot;&gt;尾款支付请求&lt;br&gt;created_at&lt;br&gt;&lt;/font&gt;&lt;/span&gt;&lt;/span&gt;" style="rounded=1;whiteSpace=wrap;html=1;fillColor=#d80073;fontColor=#ffffff;strokeColor=none;" parent="1" vertex="1">
          <mxGeometry x="700" y="1545" width="120" height="80" as="geometry" />
        </mxCell>
        <mxCell id="gqOUeNTk_rE2bpNe1rsm-99" style="edgeStyle=orthogonalEdgeStyle;rounded=0;orthogonalLoop=1;jettySize=auto;html=1;entryX=1;entryY=0.5;entryDx=0;entryDy=0;fontSize=28;fontColor=#FFFFFF;startArrow=none;startFill=0;endArrow=none;endFill=0;" parent="1" source="gqOUeNTk_rE2bpNe1rsm-94" target="gqOUeNTk_rE2bpNe1rsm-93" edge="1">
          <mxGeometry relative="1" as="geometry" />
        </mxCell>
        <mxCell id="gqOUeNTk_rE2bpNe1rsm-239" style="edgeStyle=orthogonalEdgeStyle;rounded=0;orthogonalLoop=1;jettySize=auto;html=1;dashed=1;fontSize=16;fontColor=#FFFFFF;startArrow=block;startFill=0;endArrow=none;endFill=0;" parent="1" source="gqOUeNTk_rE2bpNe1rsm-94" target="gqOUeNTk_rE2bpNe1rsm-213" edge="1">
          <mxGeometry relative="1" as="geometry" />
        </mxCell>
        <mxCell id="gqOUeNTk_rE2bpNe1rsm-94" value="&amp;lt;evidence&amp;gt;&lt;br&gt;&lt;br&gt;&lt;span id=&quot;docs-internal-guid-30c552a8-7fff-c146-13df-889dcf74978a&quot;&gt;&lt;span style=&quot;font-family: &amp;quot;Noto Sans SC&amp;quot;, sans-serif; background-color: transparent; font-variant-numeric: normal; font-variant-east-asian: normal; vertical-align: baseline;&quot;&gt;&lt;font style=&quot;font-size: 12px;&quot;&gt;尾款支付请求确认&lt;br&gt;created_at&lt;br&gt;&lt;/font&gt;&lt;/span&gt;&lt;/span&gt;" style="rounded=1;whiteSpace=wrap;html=1;fillColor=#f0a30a;fontColor=#FFFFFF;strokeColor=#BD7000;" parent="1" vertex="1">
          <mxGeometry x="940" y="1545" width="140" height="80" as="geometry" />
        </mxCell>
        <mxCell id="gqOUeNTk_rE2bpNe1rsm-96" value="&lt;font color=&quot;#000000&quot;&gt;1&lt;/font&gt;" style="text;html=1;align=center;verticalAlign=middle;resizable=0;points=[];autosize=1;strokeColor=none;fillColor=none;fontSize=12;fontColor=#FFFFFF;" parent="1" vertex="1">
          <mxGeometry x="835" y="1560" width="30" height="30" as="geometry" />
        </mxCell>
        <mxCell id="gqOUeNTk_rE2bpNe1rsm-97" value="&lt;font color=&quot;#000000&quot;&gt;1&lt;/font&gt;" style="text;html=1;align=center;verticalAlign=middle;resizable=0;points=[];autosize=1;strokeColor=none;fillColor=none;fontSize=12;fontColor=#FFFFFF;" parent="1" vertex="1">
          <mxGeometry x="880" y="1560" width="30" height="30" as="geometry" />
        </mxCell>
        <mxCell id="gqOUeNTk_rE2bpNe1rsm-98" value="拍卖平台" style="rounded=1;whiteSpace=wrap;html=1;fontSize=12;fontColor=#FFFFFF;fillColor=#f0a30a;strokeColor=none;" parent="1" vertex="1">
          <mxGeometry x="795" y="1615" width="70" height="30" as="geometry" />
        </mxCell>
        <mxCell id="gqOUeNTk_rE2bpNe1rsm-100" value="委托方" style="rounded=1;whiteSpace=wrap;html=1;fontSize=12;fontColor=#FFFFFF;fillColor=#f0a30a;strokeColor=none;" parent="1" vertex="1">
          <mxGeometry x="1050" y="1615" width="70" height="30" as="geometry" />
        </mxCell>
        <mxCell id="gqOUeNTk_rE2bpNe1rsm-187" style="edgeStyle=orthogonalEdgeStyle;rounded=0;orthogonalLoop=1;jettySize=auto;html=1;fontSize=28;fontColor=#FFFFFF;startArrow=none;startFill=0;endArrow=none;endFill=0;" parent="1" source="gqOUeNTk_rE2bpNe1rsm-103" target="6ellRIqbGZI2gtahciG1-5" edge="1">
          <mxGeometry relative="1" as="geometry" />
        </mxCell>
        <mxCell id="gqOUeNTk_rE2bpNe1rsm-103" value="&amp;lt;fulfillment&amp;gt;&lt;br&gt;&lt;br&gt;&lt;span id=&quot;docs-internal-guid-30c552a8-7fff-c146-13df-889dcf74978a&quot;&gt;&lt;span style=&quot;font-family: &amp;quot;Noto Sans SC&amp;quot;, sans-serif; background-color: transparent; font-variant-numeric: normal; font-variant-east-asian: normal; vertical-align: baseline;&quot;&gt;&lt;font style=&quot;font-size: 12px;&quot;&gt;流拍服务费支付请求&lt;br&gt;created_at&lt;br&gt;&lt;/font&gt;&lt;/span&gt;&lt;/span&gt;" style="rounded=1;whiteSpace=wrap;html=1;fillColor=#d80073;fontColor=#ffffff;strokeColor=none;" parent="1" vertex="1">
          <mxGeometry x="700" y="1685" width="127" height="71" as="geometry" />
        </mxCell>
        <mxCell id="gqOUeNTk_rE2bpNe1rsm-104" style="edgeStyle=orthogonalEdgeStyle;rounded=0;orthogonalLoop=1;jettySize=auto;html=1;entryX=1;entryY=0.5;entryDx=0;entryDy=0;fontSize=28;fontColor=#FFFFFF;startArrow=none;startFill=0;endArrow=none;endFill=0;" parent="1" source="gqOUeNTk_rE2bpNe1rsm-105" target="gqOUeNTk_rE2bpNe1rsm-103" edge="1">
          <mxGeometry relative="1" as="geometry" />
        </mxCell>
        <mxCell id="gqOUeNTk_rE2bpNe1rsm-105" value="&amp;lt;evidence&amp;gt;&lt;br&gt;&lt;br&gt;&lt;span id=&quot;docs-internal-guid-30c552a8-7fff-c146-13df-889dcf74978a&quot;&gt;&lt;span style=&quot;font-family: &amp;quot;Noto Sans SC&amp;quot;, sans-serif; background-color: transparent; font-variant-numeric: normal; font-variant-east-asian: normal; vertical-align: baseline;&quot;&gt;&lt;font style=&quot;font-size: 12px;&quot;&gt;流拍服务费支付确认&lt;br&gt;created_at&lt;br&gt;&lt;/font&gt;&lt;/span&gt;&lt;/span&gt;" style="rounded=1;whiteSpace=wrap;html=1;fillColor=#d80073;fontColor=#ffffff;strokeColor=none;" parent="1" vertex="1">
          <mxGeometry x="950" y="1685" width="127" height="71" as="geometry" />
        </mxCell>
        <mxCell id="gqOUeNTk_rE2bpNe1rsm-106" value="&lt;font color=&quot;#000000&quot;&gt;1&lt;/font&gt;" style="text;html=1;align=center;verticalAlign=middle;resizable=0;points=[];autosize=1;strokeColor=none;fillColor=none;fontSize=12;fontColor=#FFFFFF;" parent="1" vertex="1">
          <mxGeometry x="828" y="1691" width="30" height="30" as="geometry" />
        </mxCell>
        <mxCell id="gqOUeNTk_rE2bpNe1rsm-107" value="&lt;font color=&quot;#000000&quot;&gt;1&lt;/font&gt;" style="text;html=1;align=center;verticalAlign=middle;resizable=0;points=[];autosize=1;strokeColor=none;fillColor=none;fontSize=12;fontColor=#FFFFFF;" parent="1" vertex="1">
          <mxGeometry x="918" y="1691" width="30" height="30" as="geometry" />
        </mxCell>
        <mxCell id="gqOUeNTk_rE2bpNe1rsm-108" value="拍卖平台" style="rounded=1;whiteSpace=wrap;html=1;fontSize=12;fontColor=#FFFFFF;fillColor=#f0a30a;strokeColor=none;" parent="1" vertex="1">
          <mxGeometry x="798" y="1750" width="70" height="30" as="geometry" />
        </mxCell>
        <mxCell id="gqOUeNTk_rE2bpNe1rsm-109" value="委托方" style="rounded=1;whiteSpace=wrap;html=1;fontSize=12;fontColor=#FFFFFF;fillColor=#f0a30a;strokeColor=none;" parent="1" vertex="1">
          <mxGeometry x="1050" y="1750" width="70" height="30" as="geometry" />
        </mxCell>
        <mxCell id="gqOUeNTk_rE2bpNe1rsm-113" style="edgeStyle=orthogonalEdgeStyle;rounded=0;orthogonalLoop=1;jettySize=auto;html=1;entryX=0;entryY=0.625;entryDx=0;entryDy=0;entryPerimeter=0;fontSize=28;fontColor=#FFFFFF;startArrow=none;startFill=0;endArrow=none;endFill=0;" parent="1" source="gqOUeNTk_rE2bpNe1rsm-110" target="6ellRIqbGZI2gtahciG1-76" edge="1">
          <mxGeometry relative="1" as="geometry" />
        </mxCell>
        <mxCell id="gqOUeNTk_rE2bpNe1rsm-110" value="&amp;lt;domin&amp;gt;&lt;br&gt;&lt;br&gt;&lt;span id=&quot;docs-internal-guid-30c552a8-7fff-c146-13df-889dcf74978a&quot;&gt;&lt;span style=&quot;font-family: &amp;quot;Noto Sans SC&amp;quot;, sans-serif; background-color: transparent; font-variant-numeric: normal; font-variant-east-asian: normal; vertical-align: baseline;&quot;&gt;&lt;font style=&quot;font-size: 12px;&quot;&gt;委托服务费计算逻辑&lt;br&gt;&lt;/font&gt;&lt;/span&gt;&lt;/span&gt;" style="rounded=1;whiteSpace=wrap;html=1;fillColor=#f0a30a;fontColor=#FFFFFF;strokeColor=none;" parent="1" vertex="1">
          <mxGeometry x="309" y="1354.5" width="140" height="60" as="geometry" />
        </mxCell>
        <mxCell id="gqOUeNTk_rE2bpNe1rsm-115" style="edgeStyle=orthogonalEdgeStyle;rounded=0;orthogonalLoop=1;jettySize=auto;html=1;fontSize=28;fontColor=#FFFFFF;startArrow=none;startFill=0;endArrow=none;endFill=0;" parent="1" source="gqOUeNTk_rE2bpNe1rsm-114" target="gqOUeNTk_rE2bpNe1rsm-103" edge="1">
          <mxGeometry relative="1" as="geometry" />
        </mxCell>
        <mxCell id="gqOUeNTk_rE2bpNe1rsm-114" value="&amp;lt;domin&amp;gt;&lt;br&gt;&lt;br&gt;&lt;span id=&quot;docs-internal-guid-30c552a8-7fff-c146-13df-889dcf74978a&quot;&gt;&lt;span style=&quot;font-family: &amp;quot;Noto Sans SC&amp;quot;, sans-serif; background-color: transparent; font-variant-numeric: normal; font-variant-east-asian: normal; vertical-align: baseline;&quot;&gt;&lt;font style=&quot;font-size: 12px;&quot;&gt;流拍或者撤回拍品服务费计算逻辑&lt;br&gt;&lt;/font&gt;&lt;/span&gt;&lt;/span&gt;" style="rounded=1;whiteSpace=wrap;html=1;fillColor=#f0a30a;fontColor=#FFFFFF;strokeColor=none;" parent="1" vertex="1">
          <mxGeometry x="322" y="1788" width="199" height="56" as="geometry" />
        </mxCell>
        <mxCell id="gqOUeNTk_rE2bpNe1rsm-116" value="&amp;lt;fulfillment&amp;gt;&lt;br&gt;&lt;br&gt;&lt;span id=&quot;docs-internal-guid-30c552a8-7fff-c146-13df-889dcf74978a&quot;&gt;&lt;span style=&quot;font-family: &amp;quot;Noto Sans SC&amp;quot;, sans-serif; background-color: transparent; font-variant-numeric: normal; font-variant-east-asian: normal; vertical-align: baseline;&quot;&gt;&lt;font style=&quot;font-size: 12px;&quot;&gt;拍品底价请求&lt;br&gt;created_at&lt;br&gt;&lt;/font&gt;&lt;/span&gt;&lt;/span&gt;" style="rounded=1;whiteSpace=wrap;html=1;fillColor=#d80073;fontColor=#ffffff;strokeColor=none;" parent="1" vertex="1">
          <mxGeometry x="703" y="1833" width="120" height="80" as="geometry" />
        </mxCell>
        <mxCell id="gqOUeNTk_rE2bpNe1rsm-117" style="edgeStyle=orthogonalEdgeStyle;rounded=0;orthogonalLoop=1;jettySize=auto;html=1;entryX=1;entryY=0.5;entryDx=0;entryDy=0;fontSize=28;fontColor=#FFFFFF;startArrow=none;startFill=0;endArrow=none;endFill=0;" parent="1" source="gqOUeNTk_rE2bpNe1rsm-118" target="gqOUeNTk_rE2bpNe1rsm-116" edge="1">
          <mxGeometry relative="1" as="geometry" />
        </mxCell>
        <mxCell id="gqOUeNTk_rE2bpNe1rsm-118" value="&amp;lt;evidence&amp;gt;&lt;br&gt;&lt;br&gt;&lt;span id=&quot;docs-internal-guid-30c552a8-7fff-c146-13df-889dcf74978a&quot;&gt;&lt;span style=&quot;font-family: &amp;quot;Noto Sans SC&amp;quot;, sans-serif; background-color: transparent; font-variant-numeric: normal; font-variant-east-asian: normal; vertical-align: baseline;&quot;&gt;&lt;font style=&quot;font-size: 12px;&quot;&gt;拍品底价请求确认&lt;br&gt;created_at&lt;br&gt;&lt;/font&gt;&lt;/span&gt;&lt;/span&gt;" style="rounded=1;whiteSpace=wrap;html=1;fillColor=#d80073;fontColor=#ffffff;strokeColor=none;" parent="1" vertex="1">
          <mxGeometry x="943" y="1833" width="140" height="80" as="geometry" />
        </mxCell>
        <mxCell id="gqOUeNTk_rE2bpNe1rsm-119" value="&lt;font color=&quot;#000000&quot;&gt;1&lt;/font&gt;" style="text;html=1;align=center;verticalAlign=middle;resizable=0;points=[];autosize=1;strokeColor=none;fillColor=none;fontSize=12;fontColor=#FFFFFF;" parent="1" vertex="1">
          <mxGeometry x="823" y="1843" width="30" height="30" as="geometry" />
        </mxCell>
        <mxCell id="gqOUeNTk_rE2bpNe1rsm-120" value="&lt;font color=&quot;#000000&quot;&gt;1&lt;/font&gt;" style="text;html=1;align=center;verticalAlign=middle;resizable=0;points=[];autosize=1;strokeColor=none;fillColor=none;fontSize=12;fontColor=#FFFFFF;" parent="1" vertex="1">
          <mxGeometry x="908" y="1842" width="30" height="30" as="geometry" />
        </mxCell>
        <mxCell id="gqOUeNTk_rE2bpNe1rsm-121" value="委托人" style="rounded=1;whiteSpace=wrap;html=1;fontSize=12;fontColor=#FFFFFF;fillColor=#f0a30a;strokeColor=none;" parent="1" vertex="1">
          <mxGeometry x="798" y="1903" width="70" height="30" as="geometry" />
        </mxCell>
        <mxCell id="gqOUeNTk_rE2bpNe1rsm-122" value="拍卖平台" style="rounded=1;whiteSpace=wrap;html=1;fontSize=12;fontColor=#FFFFFF;fillColor=#f0a30a;strokeColor=none;" parent="1" vertex="1">
          <mxGeometry x="1053" y="1903" width="70" height="30" as="geometry" />
        </mxCell>
        <mxCell id="gqOUeNTk_rE2bpNe1rsm-188" style="edgeStyle=orthogonalEdgeStyle;rounded=0;orthogonalLoop=1;jettySize=auto;html=1;fontSize=28;fontColor=#FFFFFF;startArrow=none;startFill=0;endArrow=none;endFill=0;" parent="1" source="gqOUeNTk_rE2bpNe1rsm-123" target="6ellRIqbGZI2gtahciG1-5" edge="1">
          <mxGeometry relative="1" as="geometry" />
        </mxCell>
        <mxCell id="gqOUeNTk_rE2bpNe1rsm-123" value="&amp;lt;fulfillment&amp;gt;&lt;br&gt;&lt;br&gt;&lt;span id=&quot;docs-internal-guid-30c552a8-7fff-c146-13df-889dcf74978a&quot;&gt;&lt;span style=&quot;font-family: &amp;quot;Noto Sans SC&amp;quot;, sans-serif; background-color: transparent; font-variant-numeric: normal; font-variant-east-asian: normal; vertical-align: baseline;&quot;&gt;&lt;font style=&quot;font-size: 12px;&quot;&gt;拍品底价请求&lt;br&gt;created_at&lt;br&gt;&lt;/font&gt;&lt;/span&gt;&lt;/span&gt;" style="rounded=1;whiteSpace=wrap;html=1;fillColor=#d80073;fontColor=#ffffff;strokeColor=none;" parent="1" vertex="1">
          <mxGeometry x="704" y="1834" width="120" height="80" as="geometry" />
        </mxCell>
        <mxCell id="gqOUeNTk_rE2bpNe1rsm-124" style="edgeStyle=orthogonalEdgeStyle;rounded=0;orthogonalLoop=1;jettySize=auto;html=1;entryX=1;entryY=0.5;entryDx=0;entryDy=0;fontSize=28;fontColor=#FFFFFF;startArrow=none;startFill=0;endArrow=none;endFill=0;" parent="1" source="gqOUeNTk_rE2bpNe1rsm-125" target="gqOUeNTk_rE2bpNe1rsm-123" edge="1">
          <mxGeometry relative="1" as="geometry" />
        </mxCell>
        <mxCell id="gqOUeNTk_rE2bpNe1rsm-125" value="&amp;lt;evidence&amp;gt;&lt;br&gt;&lt;br&gt;&lt;span id=&quot;docs-internal-guid-30c552a8-7fff-c146-13df-889dcf74978a&quot;&gt;&lt;span style=&quot;font-family: &amp;quot;Noto Sans SC&amp;quot;, sans-serif; background-color: transparent; font-variant-numeric: normal; font-variant-east-asian: normal; vertical-align: baseline;&quot;&gt;&lt;font style=&quot;font-size: 12px;&quot;&gt;拍品底价请求确认&lt;br&gt;created_at&lt;br&gt;&lt;/font&gt;&lt;/span&gt;&lt;/span&gt;" style="rounded=1;whiteSpace=wrap;html=1;fillColor=#d80073;fontColor=#ffffff;strokeColor=none;" parent="1" vertex="1">
          <mxGeometry x="944" y="1834" width="140" height="80" as="geometry" />
        </mxCell>
        <mxCell id="gqOUeNTk_rE2bpNe1rsm-128" value="委托方" style="rounded=1;whiteSpace=wrap;html=1;fontSize=12;fontColor=#FFFFFF;fillColor=#f0a30a;strokeColor=none;" parent="1" vertex="1">
          <mxGeometry x="799" y="1904" width="70" height="30" as="geometry" />
        </mxCell>
        <mxCell id="gqOUeNTk_rE2bpNe1rsm-129" value="拍卖平台" style="rounded=1;whiteSpace=wrap;html=1;fontSize=12;fontColor=#FFFFFF;fillColor=#f0a30a;strokeColor=none;" parent="1" vertex="1">
          <mxGeometry x="1054" y="1904" width="70" height="30" as="geometry" />
        </mxCell>
        <mxCell id="gqOUeNTk_rE2bpNe1rsm-130" style="edgeStyle=orthogonalEdgeStyle;rounded=0;orthogonalLoop=1;jettySize=auto;html=1;entryX=1;entryY=0.5;entryDx=0;entryDy=0;fontSize=28;fontColor=#FFFFFF;startArrow=none;startFill=0;endArrow=none;endFill=0;" parent="1" source="gqOUeNTk_rE2bpNe1rsm-131" edge="1">
          <mxGeometry relative="1" as="geometry">
            <mxPoint x="827.4999999999995" y="1721.5" as="targetPoint" />
          </mxGeometry>
        </mxCell>
        <mxCell id="gqOUeNTk_rE2bpNe1rsm-240" style="edgeStyle=orthogonalEdgeStyle;rounded=0;orthogonalLoop=1;jettySize=auto;html=1;entryX=0;entryY=0.75;entryDx=0;entryDy=0;dashed=1;fontSize=16;fontColor=#FFFFFF;startArrow=block;startFill=0;endArrow=none;endFill=0;" parent="1" source="gqOUeNTk_rE2bpNe1rsm-131" target="gqOUeNTk_rE2bpNe1rsm-213" edge="1">
          <mxGeometry relative="1" as="geometry" />
        </mxCell>
        <mxCell id="gqOUeNTk_rE2bpNe1rsm-131" value="&amp;lt;evidence&amp;gt;&lt;br&gt;&lt;br&gt;&lt;span id=&quot;docs-internal-guid-30c552a8-7fff-c146-13df-889dcf74978a&quot;&gt;&lt;span style=&quot;font-family: &amp;quot;Noto Sans SC&amp;quot;, sans-serif; background-color: transparent; font-variant-numeric: normal; font-variant-east-asian: normal; vertical-align: baseline;&quot;&gt;&lt;font style=&quot;font-size: 12px;&quot;&gt;流拍服务费支付确认&lt;br&gt;created_at&lt;br&gt;&lt;/font&gt;&lt;/span&gt;&lt;/span&gt;" style="rounded=1;whiteSpace=wrap;html=1;fillColor=#d80073;fontColor=#ffffff;strokeColor=none;" parent="1" vertex="1">
          <mxGeometry x="951" y="1686" width="127" height="71" as="geometry" />
        </mxCell>
        <mxCell id="gqOUeNTk_rE2bpNe1rsm-134" value="拍卖平台" style="rounded=1;whiteSpace=wrap;html=1;fontSize=12;fontColor=#FFFFFF;fillColor=#f0a30a;strokeColor=none;" parent="1" vertex="1">
          <mxGeometry x="799" y="1751" width="70" height="30" as="geometry" />
        </mxCell>
        <mxCell id="gqOUeNTk_rE2bpNe1rsm-135" value="委托方" style="rounded=1;whiteSpace=wrap;html=1;fontSize=12;fontColor=#FFFFFF;fillColor=#f0a30a;strokeColor=none;" parent="1" vertex="1">
          <mxGeometry x="1051" y="1751" width="70" height="30" as="geometry" />
        </mxCell>
        <mxCell id="gqOUeNTk_rE2bpNe1rsm-150" style="edgeStyle=orthogonalEdgeStyle;rounded=0;orthogonalLoop=1;jettySize=auto;html=1;fontSize=28;fontColor=#FFFFFF;startArrow=none;startFill=0;endArrow=none;endFill=0;" parent="1" source="gqOUeNTk_rE2bpNe1rsm-137" target="gqOUeNTk_rE2bpNe1rsm-114" edge="1">
          <mxGeometry relative="1" as="geometry" />
        </mxCell>
        <mxCell id="gqOUeNTk_rE2bpNe1rsm-189" style="edgeStyle=orthogonalEdgeStyle;rounded=0;orthogonalLoop=1;jettySize=auto;html=1;fontSize=28;fontColor=#FFFFFF;startArrow=none;startFill=0;endArrow=none;endFill=0;" parent="1" source="gqOUeNTk_rE2bpNe1rsm-137" edge="1">
          <mxGeometry relative="1" as="geometry">
            <mxPoint x="592" y="1228" as="targetPoint" />
          </mxGeometry>
        </mxCell>
        <mxCell id="gqOUeNTk_rE2bpNe1rsm-137" value="&amp;lt;fulfillment&amp;gt;&lt;br&gt;&lt;br&gt;&lt;span id=&quot;docs-internal-guid-30c552a8-7fff-c146-13df-889dcf74978a&quot;&gt;&lt;span style=&quot;font-family: &amp;quot;Noto Sans SC&amp;quot;, sans-serif; background-color: transparent; font-variant-numeric: normal; font-variant-east-asian: normal; vertical-align: baseline;&quot;&gt;&lt;font style=&quot;font-size: 12px;&quot;&gt;支付撤回拍品请求&lt;br&gt;created_at&lt;br&gt;&lt;/font&gt;&lt;/span&gt;&lt;/span&gt;" style="rounded=1;whiteSpace=wrap;html=1;fillColor=#d80073;fontColor=#ffffff;strokeColor=none;" parent="1" vertex="1">
          <mxGeometry x="694" y="1977" width="137" height="71" as="geometry" />
        </mxCell>
        <mxCell id="gqOUeNTk_rE2bpNe1rsm-138" style="edgeStyle=orthogonalEdgeStyle;rounded=0;orthogonalLoop=1;jettySize=auto;html=1;entryX=1;entryY=0.5;entryDx=0;entryDy=0;fontSize=28;fontColor=#FFFFFF;startArrow=none;startFill=0;endArrow=none;endFill=0;" parent="1" source="gqOUeNTk_rE2bpNe1rsm-139" target="gqOUeNTk_rE2bpNe1rsm-137" edge="1">
          <mxGeometry relative="1" as="geometry" />
        </mxCell>
        <mxCell id="gqOUeNTk_rE2bpNe1rsm-139" value="&amp;lt;evidence&amp;gt;&lt;br&gt;&lt;br&gt;&lt;span id=&quot;docs-internal-guid-30c552a8-7fff-c146-13df-889dcf74978a&quot;&gt;&lt;span style=&quot;font-family: &amp;quot;Noto Sans SC&amp;quot;, sans-serif; background-color: transparent; font-variant-numeric: normal; font-variant-east-asian: normal; vertical-align: baseline;&quot;&gt;&lt;font style=&quot;font-size: 12px;&quot;&gt;流拍服务费支付确认&lt;br&gt;created_at&lt;br&gt;&lt;/font&gt;&lt;/span&gt;&lt;/span&gt;" style="rounded=1;whiteSpace=wrap;html=1;fillColor=#d80073;fontColor=#ffffff;strokeColor=none;" parent="1" vertex="1">
          <mxGeometry x="954" y="1977" width="127" height="71" as="geometry" />
        </mxCell>
        <mxCell id="gqOUeNTk_rE2bpNe1rsm-140" value="&lt;font color=&quot;#000000&quot;&gt;1&lt;/font&gt;" style="text;html=1;align=center;verticalAlign=middle;resizable=0;points=[];autosize=1;strokeColor=none;fillColor=none;fontSize=12;fontColor=#FFFFFF;" parent="1" vertex="1">
          <mxGeometry x="832" y="1983" width="30" height="30" as="geometry" />
        </mxCell>
        <mxCell id="gqOUeNTk_rE2bpNe1rsm-141" value="&lt;font color=&quot;#000000&quot;&gt;1&lt;/font&gt;" style="text;html=1;align=center;verticalAlign=middle;resizable=0;points=[];autosize=1;strokeColor=none;fillColor=none;fontSize=12;fontColor=#FFFFFF;" parent="1" vertex="1">
          <mxGeometry x="922" y="1983" width="30" height="30" as="geometry" />
        </mxCell>
        <mxCell id="gqOUeNTk_rE2bpNe1rsm-142" value="拍卖平台" style="rounded=1;whiteSpace=wrap;html=1;fontSize=12;fontColor=#FFFFFF;fillColor=#f0a30a;strokeColor=none;" parent="1" vertex="1">
          <mxGeometry x="802" y="2042" width="70" height="30" as="geometry" />
        </mxCell>
        <mxCell id="gqOUeNTk_rE2bpNe1rsm-143" value="委托方" style="rounded=1;whiteSpace=wrap;html=1;fontSize=12;fontColor=#FFFFFF;fillColor=#f0a30a;strokeColor=none;" parent="1" vertex="1">
          <mxGeometry x="1054" y="2042" width="70" height="30" as="geometry" />
        </mxCell>
        <mxCell id="gqOUeNTk_rE2bpNe1rsm-144" style="edgeStyle=orthogonalEdgeStyle;rounded=0;orthogonalLoop=1;jettySize=auto;html=1;entryX=1;entryY=0.5;entryDx=0;entryDy=0;fontSize=28;fontColor=#FFFFFF;startArrow=none;startFill=0;endArrow=none;endFill=0;" parent="1" source="gqOUeNTk_rE2bpNe1rsm-145" edge="1">
          <mxGeometry relative="1" as="geometry">
            <mxPoint x="831.4999999999995" y="2013.4999999999995" as="targetPoint" />
          </mxGeometry>
        </mxCell>
        <mxCell id="gqOUeNTk_rE2bpNe1rsm-241" style="edgeStyle=orthogonalEdgeStyle;rounded=0;orthogonalLoop=1;jettySize=auto;html=1;entryX=0;entryY=0.5;entryDx=0;entryDy=0;dashed=1;fontSize=16;fontColor=#FFFFFF;startArrow=block;startFill=0;endArrow=none;endFill=0;" parent="1" source="gqOUeNTk_rE2bpNe1rsm-145" target="gqOUeNTk_rE2bpNe1rsm-213" edge="1">
          <mxGeometry relative="1" as="geometry" />
        </mxCell>
        <mxCell id="gqOUeNTk_rE2bpNe1rsm-145" value="&amp;lt;evidence&amp;gt;&lt;br&gt;&lt;br&gt;&lt;span id=&quot;docs-internal-guid-30c552a8-7fff-c146-13df-889dcf74978a&quot;&gt;&lt;span style=&quot;font-family: &amp;quot;Noto Sans SC&amp;quot;, sans-serif; background-color: transparent; font-variant-numeric: normal; font-variant-east-asian: normal; vertical-align: baseline;&quot;&gt;&lt;font style=&quot;font-size: 12px;&quot;&gt;支付撤回拍品请求确认&lt;br&gt;created_at&lt;br&gt;&lt;/font&gt;&lt;/span&gt;&lt;/span&gt;" style="rounded=1;whiteSpace=wrap;html=1;fillColor=#f0a30a;fontColor=#FFFFFF;strokeColor=#BD7000;" parent="1" vertex="1">
          <mxGeometry x="949" y="1978" width="139" height="71" as="geometry" />
        </mxCell>
        <mxCell id="gqOUeNTk_rE2bpNe1rsm-148" value="拍卖平台" style="rounded=1;whiteSpace=wrap;html=1;fontSize=12;fontColor=#FFFFFF;fillColor=#f0a30a;strokeColor=none;" parent="1" vertex="1">
          <mxGeometry x="803" y="2043" width="70" height="30" as="geometry" />
        </mxCell>
        <mxCell id="gqOUeNTk_rE2bpNe1rsm-149" value="委托方" style="rounded=1;whiteSpace=wrap;html=1;fontSize=12;fontColor=#FFFFFF;fillColor=#f0a30a;strokeColor=none;" parent="1" vertex="1">
          <mxGeometry x="1055" y="2043" width="70" height="30" as="geometry" />
        </mxCell>
        <mxCell id="gqOUeNTk_rE2bpNe1rsm-190" style="edgeStyle=orthogonalEdgeStyle;rounded=0;orthogonalLoop=1;jettySize=auto;html=1;fontSize=28;fontColor=#FFFFFF;startArrow=none;startFill=0;endArrow=none;endFill=0;" parent="1" source="gqOUeNTk_rE2bpNe1rsm-158" target="6ellRIqbGZI2gtahciG1-5" edge="1">
          <mxGeometry relative="1" as="geometry" />
        </mxCell>
        <mxCell id="gqOUeNTk_rE2bpNe1rsm-158" value="&amp;lt;fulfillment&amp;gt;&lt;br&gt;&lt;br&gt;&lt;span id=&quot;docs-internal-guid-30c552a8-7fff-c146-13df-889dcf74978a&quot;&gt;&lt;span style=&quot;font-family: &amp;quot;Noto Sans SC&amp;quot;, sans-serif; background-color: transparent; font-variant-numeric: normal; font-variant-east-asian: normal; vertical-align: baseline;&quot;&gt;&lt;font style=&quot;font-size: 12px;&quot;&gt;取回拍品请求&lt;br&gt;created_at&lt;br&gt;expired_at&lt;br&gt;&lt;/font&gt;&lt;/span&gt;&lt;/span&gt;" style="rounded=1;whiteSpace=wrap;html=1;fillColor=#d80073;fontColor=#ffffff;strokeColor=none;" parent="1" vertex="1">
          <mxGeometry x="700" y="2113" width="91" height="85" as="geometry" />
        </mxCell>
        <mxCell id="gqOUeNTk_rE2bpNe1rsm-159" style="edgeStyle=orthogonalEdgeStyle;rounded=0;orthogonalLoop=1;jettySize=auto;html=1;entryX=1;entryY=0.5;entryDx=0;entryDy=0;fontSize=28;fontColor=#FFFFFF;startArrow=none;startFill=0;endArrow=none;endFill=0;" parent="1" source="gqOUeNTk_rE2bpNe1rsm-160" target="gqOUeNTk_rE2bpNe1rsm-158" edge="1">
          <mxGeometry relative="1" as="geometry" />
        </mxCell>
        <mxCell id="gqOUeNTk_rE2bpNe1rsm-160" value="&amp;lt;evidence&amp;gt;&lt;br&gt;&lt;br&gt;&lt;span id=&quot;docs-internal-guid-30c552a8-7fff-c146-13df-889dcf74978a&quot;&gt;&lt;span style=&quot;font-family: &amp;quot;Noto Sans SC&amp;quot;, sans-serif; background-color: transparent; font-variant-numeric: normal; font-variant-east-asian: normal; vertical-align: baseline;&quot;&gt;&lt;font style=&quot;font-size: 12px;&quot;&gt;取回拍品请求确认&lt;br&gt;created_at&lt;br&gt;expired_at&lt;br&gt;&lt;/font&gt;&lt;/span&gt;&lt;/span&gt;" style="rounded=1;whiteSpace=wrap;html=1;fillColor=#d80073;fontColor=#ffffff;strokeColor=none;" parent="1" vertex="1">
          <mxGeometry x="963" y="2113" width="115" height="85" as="geometry" />
        </mxCell>
        <mxCell id="gqOUeNTk_rE2bpNe1rsm-166" value="拍卖平台" style="rounded=1;whiteSpace=wrap;html=1;fontSize=12;fontColor=#FFFFFF;fillColor=#f0a30a;strokeColor=none;" parent="1" vertex="1">
          <mxGeometry x="1042" y="2192" width="70" height="30" as="geometry" />
        </mxCell>
        <mxCell id="gqOUeNTk_rE2bpNe1rsm-167" value="&lt;font color=&quot;#000000&quot;&gt;1&lt;/font&gt;" style="text;html=1;align=center;verticalAlign=middle;resizable=0;points=[];autosize=1;strokeColor=none;fillColor=none;fontSize=12;fontColor=#FFFFFF;" parent="1" vertex="1">
          <mxGeometry x="794" y="2128" width="30" height="30" as="geometry" />
        </mxCell>
        <mxCell id="gqOUeNTk_rE2bpNe1rsm-168" value="&lt;font color=&quot;#000000&quot;&gt;1&lt;/font&gt;" style="text;html=1;align=center;verticalAlign=middle;resizable=0;points=[];autosize=1;strokeColor=none;fillColor=none;fontSize=12;fontColor=#FFFFFF;" parent="1" vertex="1">
          <mxGeometry x="934" y="2124" width="30" height="30" as="geometry" />
        </mxCell>
        <mxCell id="gqOUeNTk_rE2bpNe1rsm-207" style="edgeStyle=orthogonalEdgeStyle;rounded=0;orthogonalLoop=1;jettySize=auto;html=1;fontSize=16;fontColor=#000000;startArrow=none;startFill=0;endArrow=none;endFill=0;" parent="1" source="gqOUeNTk_rE2bpNe1rsm-170" target="6ellRIqbGZI2gtahciG1-5" edge="1">
          <mxGeometry relative="1" as="geometry" />
        </mxCell>
        <mxCell id="gqOUeNTk_rE2bpNe1rsm-170" value="&amp;lt;fulfillment&amp;gt;&lt;br&gt;&lt;br&gt;&lt;span id=&quot;docs-internal-guid-30c552a8-7fff-c146-13df-889dcf74978a&quot;&gt;&lt;span style=&quot;font-family: &amp;quot;Noto Sans SC&amp;quot;, sans-serif; background-color: transparent; font-variant-numeric: normal; font-variant-east-asian: normal; vertical-align: baseline;&quot;&gt;&lt;font style=&quot;font-size: 12px;&quot;&gt;保管费支付请求&lt;br&gt;created_at&lt;br&gt;expired_at&lt;br&gt;&lt;/font&gt;&lt;/span&gt;&lt;/span&gt;" style="rounded=1;whiteSpace=wrap;html=1;fillColor=#d80073;fontColor=#ffffff;strokeColor=none;" parent="1" vertex="1">
          <mxGeometry x="692" y="2258" width="103" height="85" as="geometry" />
        </mxCell>
        <mxCell id="gqOUeNTk_rE2bpNe1rsm-171" style="edgeStyle=orthogonalEdgeStyle;rounded=0;orthogonalLoop=1;jettySize=auto;html=1;entryX=1;entryY=0.5;entryDx=0;entryDy=0;fontSize=28;fontColor=#FFFFFF;startArrow=none;startFill=0;endArrow=none;endFill=0;" parent="1" source="gqOUeNTk_rE2bpNe1rsm-172" target="gqOUeNTk_rE2bpNe1rsm-170" edge="1">
          <mxGeometry relative="1" as="geometry" />
        </mxCell>
        <mxCell id="gqOUeNTk_rE2bpNe1rsm-242" style="edgeStyle=orthogonalEdgeStyle;rounded=0;orthogonalLoop=1;jettySize=auto;html=1;dashed=1;fontSize=16;fontColor=#FFFFFF;startArrow=block;startFill=0;endArrow=none;endFill=0;" parent="1" source="gqOUeNTk_rE2bpNe1rsm-172" target="gqOUeNTk_rE2bpNe1rsm-213" edge="1">
          <mxGeometry relative="1" as="geometry" />
        </mxCell>
        <mxCell id="gqOUeNTk_rE2bpNe1rsm-172" value="&amp;lt;evidence&amp;gt;&lt;br&gt;&lt;br&gt;&lt;span id=&quot;docs-internal-guid-30c552a8-7fff-c146-13df-889dcf74978a&quot;&gt;&lt;span style=&quot;font-family: &amp;quot;Noto Sans SC&amp;quot;, sans-serif; background-color: transparent; font-variant-numeric: normal; font-variant-east-asian: normal; vertical-align: baseline;&quot;&gt;&lt;font style=&quot;font-size: 12px;&quot;&gt;保管费支付请求确认&lt;br&gt;created_at&lt;br&gt;expired_at&lt;br&gt;&lt;/font&gt;&lt;/span&gt;&lt;/span&gt;" style="rounded=1;whiteSpace=wrap;html=1;fillColor=#d80073;fontColor=#ffffff;strokeColor=none;" parent="1" vertex="1">
          <mxGeometry x="955" y="2258" width="127" height="85" as="geometry" />
        </mxCell>
        <mxCell id="gqOUeNTk_rE2bpNe1rsm-174" value="拍卖平台" style="rounded=1;whiteSpace=wrap;html=1;fontSize=12;fontColor=#FFFFFF;fillColor=#f0a30a;strokeColor=none;" parent="1" vertex="1">
          <mxGeometry x="1040" y="2337" width="70" height="30" as="geometry" />
        </mxCell>
        <mxCell id="gqOUeNTk_rE2bpNe1rsm-175" value="&lt;font color=&quot;#000000&quot;&gt;1&lt;/font&gt;" style="text;html=1;align=center;verticalAlign=middle;resizable=0;points=[];autosize=1;strokeColor=none;fillColor=none;fontSize=12;fontColor=#FFFFFF;" parent="1" vertex="1">
          <mxGeometry x="793" y="2273" width="30" height="30" as="geometry" />
        </mxCell>
        <mxCell id="gqOUeNTk_rE2bpNe1rsm-176" value="&lt;font color=&quot;#000000&quot;&gt;1&lt;/font&gt;" style="text;html=1;align=center;verticalAlign=middle;resizable=0;points=[];autosize=1;strokeColor=none;fillColor=none;fontSize=12;fontColor=#FFFFFF;" parent="1" vertex="1">
          <mxGeometry x="933" y="2269" width="30" height="30" as="geometry" />
        </mxCell>
        <mxCell id="gqOUeNTk_rE2bpNe1rsm-182" value="" style="endArrow=none;html=1;rounded=0;fontSize=28;fontColor=#FFFFFF;exitX=1;exitY=0.5;exitDx=0;exitDy=0;" parent="1" source="gqOUeNTk_rE2bpNe1rsm-50" target="6ellRIqbGZI2gtahciG1-26" edge="1">
          <mxGeometry width="50" height="50" relative="1" as="geometry">
            <mxPoint x="582" y="928" as="sourcePoint" />
            <mxPoint x="747" y="1005" as="targetPoint" />
          </mxGeometry>
        </mxCell>
        <mxCell id="gqOUeNTk_rE2bpNe1rsm-194" value="1" style="text;html=1;align=center;verticalAlign=middle;resizable=0;points=[];autosize=1;strokeColor=none;fillColor=none;fontSize=16;fontColor=#000000;fontStyle=1" parent="1" vertex="1">
          <mxGeometry x="557" y="1243" width="28" height="32" as="geometry" />
        </mxCell>
        <mxCell id="gqOUeNTk_rE2bpNe1rsm-196" value="1" style="text;html=1;align=center;verticalAlign=middle;resizable=0;points=[];autosize=1;strokeColor=none;fillColor=none;fontSize=16;fontColor=#000000;" parent="1" vertex="1">
          <mxGeometry x="711" y="999" width="28" height="32" as="geometry" />
        </mxCell>
        <mxCell id="gqOUeNTk_rE2bpNe1rsm-197" value="1" style="text;html=1;align=center;verticalAlign=middle;resizable=0;points=[];autosize=1;strokeColor=none;fillColor=none;fontSize=16;fontColor=#000000;" parent="1" vertex="1">
          <mxGeometry x="707" y="1143" width="28" height="32" as="geometry" />
        </mxCell>
        <mxCell id="gqOUeNTk_rE2bpNe1rsm-198" value="1" style="text;html=1;align=center;verticalAlign=middle;resizable=0;points=[];autosize=1;strokeColor=none;fillColor=none;fontSize=16;fontColor=#000000;" parent="1" vertex="1">
          <mxGeometry x="703" y="1272" width="28" height="32" as="geometry" />
        </mxCell>
        <mxCell id="gqOUeNTk_rE2bpNe1rsm-199" value="1" style="text;html=1;align=center;verticalAlign=middle;resizable=0;points=[];autosize=1;strokeColor=none;fillColor=none;fontSize=16;fontColor=#000000;" parent="1" vertex="1">
          <mxGeometry x="671" y="1422" width="28" height="32" as="geometry" />
        </mxCell>
        <mxCell id="gqOUeNTk_rE2bpNe1rsm-201" value="1" style="text;html=1;align=center;verticalAlign=middle;resizable=0;points=[];autosize=1;strokeColor=none;fillColor=none;fontSize=16;fontColor=#000000;" parent="1" vertex="1">
          <mxGeometry x="672" y="1550" width="28" height="32" as="geometry" />
        </mxCell>
        <mxCell id="gqOUeNTk_rE2bpNe1rsm-202" value="1" style="text;html=1;align=center;verticalAlign=middle;resizable=0;points=[];autosize=1;strokeColor=none;fillColor=none;fontSize=16;fontColor=#000000;" parent="1" vertex="1">
          <mxGeometry x="673" y="1686" width="28" height="32" as="geometry" />
        </mxCell>
        <mxCell id="gqOUeNTk_rE2bpNe1rsm-203" value="1" style="text;html=1;align=center;verticalAlign=middle;resizable=0;points=[];autosize=1;strokeColor=none;fillColor=none;fontSize=16;fontColor=#000000;" parent="1" vertex="1">
          <mxGeometry x="671" y="1839" width="28" height="32" as="geometry" />
        </mxCell>
        <mxCell id="gqOUeNTk_rE2bpNe1rsm-204" value="1" style="text;html=1;align=center;verticalAlign=middle;resizable=0;points=[];autosize=1;strokeColor=none;fillColor=none;fontSize=16;fontColor=#000000;" parent="1" vertex="1">
          <mxGeometry x="662" y="2013" width="28" height="32" as="geometry" />
        </mxCell>
        <mxCell id="gqOUeNTk_rE2bpNe1rsm-205" value="1" style="text;html=1;align=center;verticalAlign=middle;resizable=0;points=[];autosize=1;strokeColor=none;fillColor=none;fontSize=16;fontColor=#000000;" parent="1" vertex="1">
          <mxGeometry x="668" y="2122" width="28" height="32" as="geometry" />
        </mxCell>
        <mxCell id="gqOUeNTk_rE2bpNe1rsm-206" value="1" style="text;html=1;align=center;verticalAlign=middle;resizable=0;points=[];autosize=1;strokeColor=none;fillColor=none;fontSize=16;fontColor=#000000;" parent="1" vertex="1">
          <mxGeometry x="661" y="2258" width="28" height="32" as="geometry" />
        </mxCell>
        <mxCell id="gqOUeNTk_rE2bpNe1rsm-208" value="&amp;lt;3rd system&amp;gt;&lt;br&gt;&lt;br&gt;&lt;span id=&quot;docs-internal-guid-30c552a8-7fff-c146-13df-889dcf74978a&quot;&gt;&lt;span style=&quot;font-family: &amp;quot;Noto Sans SC&amp;quot;, sans-serif; background-color: transparent; font-variant-numeric: normal; font-variant-east-asian: normal; vertical-align: baseline;&quot;&gt;&lt;font style=&quot;font-size: 12px;&quot;&gt;银行对公对私系统&lt;br&gt;&lt;/font&gt;&lt;/span&gt;&lt;/span&gt;" style="rounded=1;whiteSpace=wrap;html=1;fillColor=#f0a30a;fontColor=#FFFFFF;strokeColor=none;" parent="1" vertex="1">
          <mxGeometry x="1512" y="1387" width="140" height="60" as="geometry" />
        </mxCell>
        <mxCell id="gqOUeNTk_rE2bpNe1rsm-221" style="edgeStyle=orthogonalEdgeStyle;rounded=0;orthogonalLoop=1;jettySize=auto;html=1;fontSize=16;fontColor=#000000;startArrow=none;startFill=0;endArrow=none;endFill=0;" parent="1" source="gqOUeNTk_rE2bpNe1rsm-212" target="6ellRIqbGZI2gtahciG1-166" edge="1">
          <mxGeometry relative="1" as="geometry" />
        </mxCell>
        <mxCell id="gqOUeNTk_rE2bpNe1rsm-212" value="&amp;lt;contract&amp;gt;&lt;br&gt;&lt;br&gt;&lt;span id=&quot;docs-internal-guid-30c552a8-7fff-c146-13df-889dcf74978a&quot;&gt;&lt;span style=&quot;font-family: &amp;quot;Noto Sans SC&amp;quot;, sans-serif; background-color: transparent; font-variant-numeric: normal; font-variant-east-asian: normal; vertical-align: baseline;&quot;&gt;&lt;font style=&quot;font-size: 12px;&quot;&gt;支付协议&lt;br&gt;&lt;/font&gt;&lt;/span&gt;&lt;/span&gt;" style="rounded=1;whiteSpace=wrap;html=1;fillColor=#d80073;fontColor=#ffffff;strokeColor=none;arcSize=12;" parent="1" vertex="1">
          <mxGeometry x="1544" y="1477" width="76" height="56" as="geometry" />
        </mxCell>
        <mxCell id="gqOUeNTk_rE2bpNe1rsm-213" value="&amp;lt;evidence&amp;gt;&lt;br&gt;&lt;br&gt;&lt;span id=&quot;docs-internal-guid-30c552a8-7fff-c146-13df-889dcf74978a&quot;&gt;&lt;span style=&quot;font-family: &amp;quot;Noto Sans SC&amp;quot;, sans-serif; background-color: transparent; font-variant-numeric: normal; font-variant-east-asian: normal; vertical-align: baseline;&quot;&gt;&lt;font style=&quot;font-size: 12px;&quot;&gt;支付请求确认&lt;span style=&quot;color: rgba(0, 0, 0, 0); font-family: monospace; font-size: 0px; text-align: start;&quot;&gt;%3CmxGraphModel%3E%3Croot%3E%3CmxCell%20id%3D%220%22%2F%3E%3CmxCell%20id%3D%221%22%20parent%3D%220%22%2F%3E%3CmxCell%20id%3D%222%22%20value%3D%22%26amp%3Blt%3Bevidence%26amp%3Bgt%3B%26lt%3Bbr%26gt%3B%26lt%3Bbr%26gt%3B%26lt%3Bspan%20id%3D%26quot%3Bdocs-internal-guid-30c552a8-7fff-c146-13df-889dcf74978a%26quot%3B%26gt%3B%26lt%3Bspan%20style%3D%26quot%3Bfont-family%3A%20%26amp%3Bquot%3BNoto%20Sans%20SC%26amp%3Bquot%3B%2C%20sans-serif%3B%20background-color%3A%20transparent%3B%20font-variant-numeric%3A%20normal%3B%20font-variant-east-asian%3A%20normal%3B%20vertical-align%3A%20baseline%3B%26quot%3B%26gt%3B%26lt%3Bfont%20style%3D%26quot%3Bfont-size%3A%2012px%3B%26quot%3B%26gt%3B%E5%8F%91%E7%A5%A8%26lt%3Bbr%26gt%3Bcreated_at%26lt%3Bbr%26gt%3B%26lt%3B%2Ffont%26gt%3B%26lt%3B%2Fspan%26gt%3B%26lt%3B%2Fspan%26gt%3B%22%20style%3D%22rounded%3D1%3BwhiteSpace%3Dwrap%3Bhtml%3D1%3BfillColor%3D%23d80073%3BfontColor%3D%23ffffff%3BstrokeColor%3Dnone%3BarcSize%3D12%3B%22%20vertex%3D%221%22%20parent%3D%221%22%3E%3CmxGeometry%20x%3D%22740%22%20y%3D%221640%22%20width%3D%22100%22%20height%3D%2290%22%20as%3D%22geometry%22%2F%3E%3C%2FmxCell%3E%3C%2Froot%3E%3C%2FmxGraphModel%3E&lt;/span&gt;&lt;br&gt;created_at&lt;br&gt;expired_at&lt;br&gt;&lt;/font&gt;&lt;/span&gt;&lt;/span&gt;" style="rounded=1;whiteSpace=wrap;html=1;fillColor=#d80073;fontColor=#ffffff;strokeColor=none;arcSize=12;" parent="1" vertex="1">
          <mxGeometry x="1358" y="1337" width="100" height="80" as="geometry" />
        </mxCell>
        <mxCell id="gqOUeNTk_rE2bpNe1rsm-220" value="" style="endArrow=none;html=1;rounded=0;fontSize=16;fontColor=#000000;" parent="1" source="gqOUeNTk_rE2bpNe1rsm-212" target="gqOUeNTk_rE2bpNe1rsm-208" edge="1">
          <mxGeometry width="50" height="50" relative="1" as="geometry">
            <mxPoint x="1352" y="1466" as="sourcePoint" />
            <mxPoint x="1402" y="1416" as="targetPoint" />
          </mxGeometry>
        </mxCell>
        <mxCell id="gqOUeNTk_rE2bpNe1rsm-223" value="1" style="text;html=1;align=center;verticalAlign=middle;resizable=0;points=[];autosize=1;strokeColor=none;fillColor=none;fontSize=16;fontColor=#000000;" parent="1" vertex="1">
          <mxGeometry x="1413" y="1415" width="28" height="32" as="geometry" />
        </mxCell>
        <mxCell id="gqOUeNTk_rE2bpNe1rsm-224" value="1" style="text;html=1;align=center;verticalAlign=middle;resizable=0;points=[];autosize=1;strokeColor=none;fillColor=none;fontSize=16;fontColor=#000000;" parent="1" vertex="1">
          <mxGeometry x="1410" y="1438.5" width="28" height="32" as="geometry" />
        </mxCell>
        <mxCell id="gqOUeNTk_rE2bpNe1rsm-225" value="1" style="text;html=1;align=center;verticalAlign=middle;resizable=0;points=[];autosize=1;strokeColor=none;fillColor=none;fontSize=16;fontColor=#000000;" parent="1" vertex="1">
          <mxGeometry x="1456" y="1474" width="28" height="32" as="geometry" />
        </mxCell>
        <mxCell id="gqOUeNTk_rE2bpNe1rsm-226" value="1" style="text;html=1;align=center;verticalAlign=middle;resizable=0;points=[];autosize=1;strokeColor=none;fillColor=none;fontSize=16;fontColor=#000000;" parent="1" vertex="1">
          <mxGeometry x="1516" y="1475" width="28" height="32" as="geometry" />
        </mxCell>
        <mxCell id="6ellRIqbGZI2gtahciG1-166" value="&amp;lt;fulfillment&amp;gt;&lt;br&gt;&lt;br&gt;&lt;span id=&quot;docs-internal-guid-30c552a8-7fff-c146-13df-889dcf74978a&quot;&gt;&lt;span style=&quot;font-family: &amp;quot;Noto Sans SC&amp;quot;, sans-serif; background-color: transparent; font-variant-numeric: normal; font-variant-east-asian: normal; vertical-align: baseline;&quot;&gt;&lt;font style=&quot;font-size: 12px;&quot;&gt;支付请求&lt;span style=&quot;color: rgba(0, 0, 0, 0); font-family: monospace; font-size: 0px; text-align: start;&quot;&gt;%3CmxGraphModel%3E%3Croot%3E%3CmxCell%20id%3D%220%22%2F%3E%3CmxCell%20id%3D%221%22%20parent%3D%220%22%2F%3E%3CmxCell%20id%3D%222%22%20value%3D%22%26amp%3Blt%3Bevidence%26amp%3Bgt%3B%26lt%3Bbr%26gt%3B%26lt%3Bbr%26gt%3B%26lt%3Bspan%20id%3D%26quot%3Bdocs-internal-guid-30c552a8-7fff-c146-13df-889dcf74978a%26quot%3B%26gt%3B%26lt%3Bspan%20style%3D%26quot%3Bfont-family%3A%20%26amp%3Bquot%3BNoto%20Sans%20SC%26amp%3Bquot%3B%2C%20sans-serif%3B%20background-color%3A%20transparent%3B%20font-variant-numeric%3A%20normal%3B%20font-variant-east-asian%3A%20normal%3B%20vertical-align%3A%20baseline%3B%26quot%3B%26gt%3B%26lt%3Bfont%20style%3D%26quot%3Bfont-size%3A%2012px%3B%26quot%3B%26gt%3B%E5%8F%91%E7%A5%A8%26lt%3Bbr%26gt%3Bcreated_at%26lt%3Bbr%26gt%3B%26lt%3B%2Ffont%26gt%3B%26lt%3B%2Fspan%26gt%3B%26lt%3B%2Fspan%26gt%3B%22%20style%3D%22rounded%3D1%3BwhiteSpace%3Dwrap%3Bhtml%3D1%3BfillColor%3D%23d80073%3BfontColor%3D%23ffffff%3BstrokeColor%3Dnone%3BarcSize%3D12%3B%22%20vertex%3D%221%22%20parent%3D%221%22%3E%3CmxGeometry%20x%3D%22740%22%20y%3D%221640%22%20width%3D%22100%22%20height%3D%2290%22%20as%3D%22geometry%22%2F%3E%3C%2FmxCell%3E%3C%2Froot%3E%3C%2FmxGraphModel%3E&lt;/span&gt;&lt;br&gt;created_at&lt;br&gt;expired_at&lt;br&gt;&lt;/font&gt;&lt;/span&gt;&lt;/span&gt;" style="rounded=1;whiteSpace=wrap;html=1;fillColor=#d80073;fontColor=#ffffff;strokeColor=none;arcSize=12;" parent="1" vertex="1">
          <mxGeometry x="1359" y="1465" width="100" height="80" as="geometry" />
        </mxCell>
        <mxCell id="6ellRIqbGZI2gtahciG1-57" value="&amp;lt;fulfillment&amp;gt;&lt;br&gt;&lt;br&gt;&lt;span id=&quot;docs-internal-guid-30c552a8-7fff-c146-13df-889dcf74978a&quot;&gt;&lt;span style=&quot;font-family: &amp;quot;Noto Sans SC&amp;quot;, sans-serif; background-color: transparent; font-variant-numeric: normal; font-variant-east-asian: normal; vertical-align: baseline;&quot;&gt;&lt;font style=&quot;font-size: 12px;&quot;&gt;拍品公告请求&lt;br&gt;created_at&lt;br&gt;&lt;/font&gt;&lt;/span&gt;&lt;/span&gt;" style="rounded=1;whiteSpace=wrap;html=1;fillColor=#d80073;fontColor=#ffffff;strokeColor=none;" parent="1" vertex="1">
          <mxGeometry x="735" y="1265" width="120" height="80" as="geometry" />
        </mxCell>
        <mxCell id="6ellRIqbGZI2gtahciG1-174" value="第三方系统银行对公对私上下文" style="text;html=1;align=center;verticalAlign=middle;resizable=0;points=[];autosize=1;strokeColor=none;fillColor=none;fontSize=28;fontColor=#000000;fontStyle=1" parent="1" vertex="1">
          <mxGeometry x="1348" y="1216" width="411" height="47" as="geometry" />
        </mxCell>
        <mxCell id="gqOUeNTk_rE2bpNe1rsm-75" value="委托方" style="rounded=1;whiteSpace=wrap;html=1;fontSize=12;fontColor=#FFFFFF;fillColor=#f0a30a;strokeColor=none;" parent="1" vertex="1">
          <mxGeometry x="805" y="1340" width="70" height="30" as="geometry" />
        </mxCell>
        <mxCell id="bYJwymjEN58D1QEqfzbn-4" value="委托方" style="rounded=1;whiteSpace=wrap;html=1;fontSize=12;fontColor=#FFFFFF;fillColor=#f0a30a;strokeColor=none;" vertex="1" parent="1">
          <mxGeometry x="760" y="2193" width="70" height="30" as="geometry" />
        </mxCell>
        <mxCell id="bYJwymjEN58D1QEqfzbn-5" value="委托方" style="rounded=1;whiteSpace=wrap;html=1;fontSize=12;fontColor=#FFFFFF;fillColor=#f0a30a;strokeColor=none;" vertex="1" parent="1">
          <mxGeometry x="761" y="2337" width="70" height="30" as="geometry" />
        </mxCell>
        <mxCell id="bYJwymjEN58D1QEqfzbn-106" style="edgeStyle=orthogonalEdgeStyle;rounded=0;orthogonalLoop=1;jettySize=auto;html=1;entryX=1;entryY=0.5;entryDx=0;entryDy=0;fontSize=16;fontColor=#000000;startArrow=none;startFill=0;endArrow=none;endFill=0;" edge="1" parent="1" source="bYJwymjEN58D1QEqfzbn-13" target="bYJwymjEN58D1QEqfzbn-37">
          <mxGeometry relative="1" as="geometry" />
        </mxCell>
        <mxCell id="bYJwymjEN58D1QEqfzbn-13" value="&amp;lt;Contract&amp;gt;&lt;br&gt;&lt;br&gt;&lt;span id=&quot;docs-internal-guid-30c552a8-7fff-c146-13df-889dcf74978a&quot;&gt;&lt;span style=&quot;font-family: &amp;quot;Noto Sans SC&amp;quot;, sans-serif; background-color: transparent; font-variant-numeric: normal; font-variant-east-asian: normal; vertical-align: baseline;&quot;&gt;&lt;font style=&quot;font-size: 12px;&quot;&gt;竞买合同&lt;br&gt;created_at&lt;br&gt;&lt;/font&gt;&lt;/span&gt;&lt;/span&gt;" style="rounded=1;whiteSpace=wrap;html=1;fillColor=#d80073;fontColor=#ffffff;strokeColor=none;arcSize=12;" vertex="1" parent="1">
          <mxGeometry x="2333" y="1135" width="100" height="85" as="geometry" />
        </mxCell>
        <mxCell id="bYJwymjEN58D1QEqfzbn-14" style="edgeStyle=orthogonalEdgeStyle;rounded=0;orthogonalLoop=1;jettySize=auto;html=1;fontSize=16;fontColor=#FFFFFF;startArrow=none;startFill=0;endArrow=none;endFill=0;" edge="1" parent="1" source="bYJwymjEN58D1QEqfzbn-15" target="bYJwymjEN58D1QEqfzbn-13">
          <mxGeometry relative="1" as="geometry" />
        </mxCell>
        <mxCell id="bYJwymjEN58D1QEqfzbn-15" value="&amp;lt;Proposal&amp;gt;&lt;br&gt;&lt;br&gt;&lt;span id=&quot;docs-internal-guid-30c552a8-7fff-c146-13df-889dcf74978a&quot;&gt;&lt;span style=&quot;font-family: &amp;quot;Noto Sans SC&amp;quot;, sans-serif; background-color: transparent; font-variant-numeric: normal; font-variant-east-asian: normal; vertical-align: baseline;&quot;&gt;&lt;font style=&quot;font-size: 12px;&quot;&gt;竞买报价方案&lt;br&gt;proposed_at&lt;br&gt;&lt;/font&gt;&lt;/span&gt;&lt;/span&gt;" style="rounded=1;whiteSpace=wrap;html=1;fillColor=#d80073;fontColor=#ffffff;strokeColor=none;" vertex="1" parent="1">
          <mxGeometry x="2521" y="1135" width="120" height="85" as="geometry" />
        </mxCell>
        <mxCell id="bYJwymjEN58D1QEqfzbn-16" style="edgeStyle=orthogonalEdgeStyle;rounded=0;orthogonalLoop=1;jettySize=auto;html=1;fontSize=16;fontColor=#FFFFFF;startArrow=none;startFill=0;endArrow=none;endFill=0;" edge="1" parent="1" source="bYJwymjEN58D1QEqfzbn-17" target="bYJwymjEN58D1QEqfzbn-15">
          <mxGeometry relative="1" as="geometry" />
        </mxCell>
        <mxCell id="bYJwymjEN58D1QEqfzbn-17" value="&amp;lt;rfp&amp;gt;&lt;br&gt;&lt;br&gt;&lt;span id=&quot;docs-internal-guid-30c552a8-7fff-c146-13df-889dcf74978a&quot;&gt;&lt;span style=&quot;background-color: transparent; font-variant-numeric: normal; font-variant-east-asian: normal; vertical-align: baseline;&quot;&gt;&lt;font style=&quot;&quot;&gt;&lt;font face=&quot;Noto Sans SC, sans-serif&quot;&gt;竞买请求&lt;/font&gt;&lt;br&gt;&lt;font face=&quot;Noto Sans SC, sans-serif&quot;&gt;created_at&lt;/font&gt;&lt;br&gt;&lt;font face=&quot;Noto Sans SC, sans-serif&quot;&gt;collection_price&lt;/font&gt;&lt;br&gt;&lt;/font&gt;&lt;/span&gt;&lt;/span&gt;" style="rounded=1;whiteSpace=wrap;html=1;fillColor=#d80073;fontColor=#ffffff;strokeColor=none;" vertex="1" parent="1">
          <mxGeometry x="2717" y="1127" width="110" height="100" as="geometry" />
        </mxCell>
        <mxCell id="bYJwymjEN58D1QEqfzbn-18" style="edgeStyle=orthogonalEdgeStyle;rounded=0;orthogonalLoop=1;jettySize=auto;html=1;fontColor=#FFFFFF;endArrow=none;endFill=0;" edge="1" parent="1" source="bYJwymjEN58D1QEqfzbn-20" target="bYJwymjEN58D1QEqfzbn-17">
          <mxGeometry relative="1" as="geometry" />
        </mxCell>
        <mxCell id="bYJwymjEN58D1QEqfzbn-19" style="edgeStyle=orthogonalEdgeStyle;rounded=0;orthogonalLoop=1;jettySize=auto;html=1;exitX=0.5;exitY=0;exitDx=0;exitDy=0;dashed=1;fontColor=#000000;startArrow=classic;startFill=0;endArrow=none;endFill=0;" edge="1" parent="1" source="bYJwymjEN58D1QEqfzbn-20" target="bYJwymjEN58D1QEqfzbn-23">
          <mxGeometry relative="1" as="geometry" />
        </mxCell>
        <mxCell id="bYJwymjEN58D1QEqfzbn-20" value="&amp;lt;party&amp;gt;&lt;br&gt;&lt;br&gt;&lt;span id=&quot;docs-internal-guid-30c552a8-7fff-c146-13df-889dcf74978a&quot;&gt;&lt;span style=&quot;background-color: transparent; font-variant-numeric: normal; font-variant-east-asian: normal; vertical-align: baseline;&quot;&gt;&lt;font style=&quot;font-size: 12px;&quot;&gt;竞买人&lt;br&gt;&lt;/font&gt;&lt;/span&gt;&lt;/span&gt;" style="rounded=1;whiteSpace=wrap;html=1;fillColor=#f0a30a;fontColor=#FFFFFF;strokeColor=none;" vertex="1" parent="1">
          <mxGeometry x="2722" y="992" width="100" height="60" as="geometry" />
        </mxCell>
        <mxCell id="bYJwymjEN58D1QEqfzbn-21" value="1" style="text;html=1;align=center;verticalAlign=middle;resizable=0;points=[];autosize=1;strokeColor=none;fillColor=none;fontColor=#000000;" vertex="1" parent="1">
          <mxGeometry x="2747" y="1047" width="40" height="40" as="geometry" />
        </mxCell>
        <mxCell id="bYJwymjEN58D1QEqfzbn-22" value="1" style="text;html=1;align=center;verticalAlign=middle;resizable=0;points=[];autosize=1;strokeColor=none;fillColor=none;fontColor=#000000;" vertex="1" parent="1">
          <mxGeometry x="2747" y="1087" width="40" height="40" as="geometry" />
        </mxCell>
        <mxCell id="bYJwymjEN58D1QEqfzbn-23" value="&amp;lt;party&amp;gt;&lt;br&gt;&lt;br&gt;&lt;span id=&quot;docs-internal-guid-30c552a8-7fff-c146-13df-889dcf74978a&quot;&gt;&lt;span style=&quot;font-family: &amp;quot;Noto Sans SC&amp;quot;, sans-serif; background-color: transparent; font-variant-numeric: normal; font-variant-east-asian: normal; vertical-align: baseline;&quot;&gt;&lt;font style=&quot;font-size: 12px;&quot;&gt;注册用户&lt;br&gt;&lt;/font&gt;&lt;/span&gt;&lt;/span&gt;" style="rounded=1;whiteSpace=wrap;html=1;fillColor=#60a917;fontColor=#ffffff;strokeColor=#2D7600;" vertex="1" parent="1">
          <mxGeometry x="2722" y="877" width="100" height="60" as="geometry" />
        </mxCell>
        <mxCell id="bYJwymjEN58D1QEqfzbn-24" style="edgeStyle=orthogonalEdgeStyle;rounded=0;orthogonalLoop=1;jettySize=auto;html=1;exitX=0.5;exitY=0;exitDx=0;exitDy=0;dashed=1;fontColor=#000000;startArrow=classic;startFill=0;endArrow=none;endFill=0;" edge="1" parent="1" source="bYJwymjEN58D1QEqfzbn-25" target="bYJwymjEN58D1QEqfzbn-28">
          <mxGeometry relative="1" as="geometry" />
        </mxCell>
        <mxCell id="bYJwymjEN58D1QEqfzbn-25" value="&amp;lt;party&amp;gt;&lt;br&gt;&lt;br&gt;&lt;span id=&quot;docs-internal-guid-30c552a8-7fff-c146-13df-889dcf74978a&quot;&gt;&lt;span style=&quot;font-family: &amp;quot;Noto Sans SC&amp;quot;, sans-serif; background-color: transparent; font-variant-numeric: normal; font-variant-east-asian: normal; vertical-align: baseline;&quot;&gt;&lt;font style=&quot;font-size: 12px;&quot;&gt;拍卖平台&lt;br&gt;&lt;/font&gt;&lt;/span&gt;&lt;/span&gt;" style="rounded=1;whiteSpace=wrap;html=1;fillColor=#f0a30a;fontColor=#FFFFFF;strokeColor=none;" vertex="1" parent="1">
          <mxGeometry x="2531" y="992" width="100" height="60" as="geometry" />
        </mxCell>
        <mxCell id="bYJwymjEN58D1QEqfzbn-26" value="1" style="text;html=1;align=center;verticalAlign=middle;resizable=0;points=[];autosize=1;strokeColor=none;fillColor=none;fontColor=#000000;" vertex="1" parent="1">
          <mxGeometry x="2541" y="1052" width="40" height="40" as="geometry" />
        </mxCell>
        <mxCell id="bYJwymjEN58D1QEqfzbn-27" value="1" style="text;html=1;align=center;verticalAlign=middle;resizable=0;points=[];autosize=1;strokeColor=none;fillColor=none;fontColor=#000000;" vertex="1" parent="1">
          <mxGeometry x="2541" y="1095" width="40" height="40" as="geometry" />
        </mxCell>
        <mxCell id="bYJwymjEN58D1QEqfzbn-28" value="&amp;lt;party&amp;gt;&lt;br&gt;&lt;br&gt;&lt;span id=&quot;docs-internal-guid-30c552a8-7fff-c146-13df-889dcf74978a&quot;&gt;&lt;span style=&quot;font-family: &amp;quot;Noto Sans SC&amp;quot;, sans-serif; background-color: transparent; font-variant-numeric: normal; font-variant-east-asian: normal; vertical-align: baseline;&quot;&gt;&lt;font style=&quot;font-size: 12px;&quot;&gt;拍一拍拍卖平台&lt;br&gt;&lt;/font&gt;&lt;/span&gt;&lt;/span&gt;" style="rounded=1;whiteSpace=wrap;html=1;fillColor=#60a917;fontColor=#ffffff;strokeColor=#2D7600;" vertex="1" parent="1">
          <mxGeometry x="2531" y="877" width="100" height="60" as="geometry" />
        </mxCell>
        <mxCell id="bYJwymjEN58D1QEqfzbn-29" style="edgeStyle=orthogonalEdgeStyle;rounded=0;orthogonalLoop=1;jettySize=auto;html=1;fontColor=#FFFFFF;endArrow=none;endFill=0;" edge="1" parent="1">
          <mxGeometry relative="1" as="geometry">
            <mxPoint x="2580.41" y="1054.5" as="sourcePoint" />
            <mxPoint x="2580.41" y="1134.5" as="targetPoint" />
          </mxGeometry>
        </mxCell>
        <mxCell id="bYJwymjEN58D1QEqfzbn-30" value="1" style="text;html=1;align=center;verticalAlign=middle;resizable=0;points=[];autosize=1;strokeColor=none;fillColor=none;fontColor=#000000;" vertex="1" parent="1">
          <mxGeometry x="2634" y="1138" width="40" height="40" as="geometry" />
        </mxCell>
        <mxCell id="bYJwymjEN58D1QEqfzbn-31" value="1" style="text;html=1;align=center;verticalAlign=middle;resizable=0;points=[];autosize=1;strokeColor=none;fillColor=none;fontColor=#000000;" vertex="1" parent="1">
          <mxGeometry x="2481" y="1140" width="40" height="40" as="geometry" />
        </mxCell>
        <mxCell id="bYJwymjEN58D1QEqfzbn-34" value="1" style="text;html=1;align=center;verticalAlign=middle;resizable=0;points=[];autosize=1;strokeColor=none;fillColor=none;fontColor=#000000;" vertex="1" parent="1">
          <mxGeometry x="2433" y="1141" width="40" height="40" as="geometry" />
        </mxCell>
        <mxCell id="bYJwymjEN58D1QEqfzbn-35" value="1" style="text;html=1;align=center;verticalAlign=middle;resizable=0;points=[];autosize=1;strokeColor=none;fillColor=none;fontColor=#000000;" vertex="1" parent="1">
          <mxGeometry x="2685" y="1143" width="40" height="40" as="geometry" />
        </mxCell>
        <mxCell id="bYJwymjEN58D1QEqfzbn-37" value="&amp;lt;fulfillment&amp;gt;&lt;br&gt;&lt;br&gt;&lt;span id=&quot;docs-internal-guid-30c552a8-7fff-c146-13df-889dcf74978a&quot;&gt;&lt;span style=&quot;font-family: &amp;quot;Noto Sans SC&amp;quot;, sans-serif; background-color: transparent; font-variant-numeric: normal; font-variant-east-asian: normal; vertical-align: baseline;&quot;&gt;&lt;font style=&quot;font-size: 12px;&quot;&gt;保证金支付请求&lt;br&gt;created_at&lt;br&gt;expired_at&lt;br&gt;&lt;/font&gt;&lt;/span&gt;&lt;/span&gt;" style="rounded=1;whiteSpace=wrap;html=1;fillColor=#d80073;fontColor=#ffffff;strokeColor=none;" vertex="1" parent="1">
          <mxGeometry x="2161" y="1037" width="100" height="90" as="geometry" />
        </mxCell>
        <mxCell id="bYJwymjEN58D1QEqfzbn-44" style="edgeStyle=orthogonalEdgeStyle;rounded=0;orthogonalLoop=1;jettySize=auto;html=1;fontSize=16;fontColor=#FFFFFF;startArrow=none;startFill=0;endArrow=none;endFill=0;" edge="1" parent="1" source="bYJwymjEN58D1QEqfzbn-38" target="bYJwymjEN58D1QEqfzbn-37">
          <mxGeometry relative="1" as="geometry" />
        </mxCell>
        <mxCell id="bYJwymjEN58D1QEqfzbn-99" style="edgeStyle=orthogonalEdgeStyle;rounded=0;orthogonalLoop=1;jettySize=auto;html=1;fontSize=16;fontColor=#000000;startArrow=block;startFill=0;endArrow=none;endFill=0;dashed=1;" edge="1" parent="1" source="bYJwymjEN58D1QEqfzbn-38" target="gqOUeNTk_rE2bpNe1rsm-213">
          <mxGeometry relative="1" as="geometry" />
        </mxCell>
        <mxCell id="bYJwymjEN58D1QEqfzbn-38" value="&amp;lt;fulfillment&amp;gt;&lt;br&gt;&lt;br&gt;&lt;span id=&quot;docs-internal-guid-30c552a8-7fff-c146-13df-889dcf74978a&quot;&gt;&lt;span style=&quot;font-family: &amp;quot;Noto Sans SC&amp;quot;, sans-serif; background-color: transparent; font-variant-numeric: normal; font-variant-east-asian: normal; vertical-align: baseline;&quot;&gt;&lt;font style=&quot;font-size: 12px;&quot;&gt;保证金支付请求确认&lt;br&gt;created_at&lt;br&gt;expired_at&lt;br&gt;&lt;/font&gt;&lt;/span&gt;&lt;/span&gt;" style="rounded=1;whiteSpace=wrap;html=1;fillColor=#f0a30a;fontColor=#FFFFFF;strokeColor=#BD7000;" vertex="1" parent="1">
          <mxGeometry x="1935" y="1042" width="140" height="80" as="geometry" />
        </mxCell>
        <mxCell id="bYJwymjEN58D1QEqfzbn-42" value="竞买人" style="rounded=1;whiteSpace=wrap;html=1;fontSize=12;fontColor=#FFFFFF;fillColor=#f0a30a;strokeColor=none;" vertex="1" parent="1">
          <mxGeometry x="1889" y="1109" width="70" height="30" as="geometry" />
        </mxCell>
        <mxCell id="bYJwymjEN58D1QEqfzbn-43" value="拍卖平台" style="rounded=1;whiteSpace=wrap;html=1;fontSize=12;fontColor=#FFFFFF;fillColor=#f0a30a;strokeColor=none;" vertex="1" parent="1">
          <mxGeometry x="2107" y="1112" width="70" height="30" as="geometry" />
        </mxCell>
        <mxCell id="bYJwymjEN58D1QEqfzbn-47" value="1" style="text;html=1;align=center;verticalAlign=middle;resizable=0;points=[];autosize=1;strokeColor=none;fillColor=none;fontColor=#000000;" vertex="1" parent="1">
          <mxGeometry x="2064" y="1050" width="40" height="40" as="geometry" />
        </mxCell>
        <mxCell id="bYJwymjEN58D1QEqfzbn-48" value="1" style="text;html=1;align=center;verticalAlign=middle;resizable=0;points=[];autosize=1;strokeColor=none;fillColor=none;fontColor=#000000;" vertex="1" parent="1">
          <mxGeometry x="2123" y="1054" width="40" height="40" as="geometry" />
        </mxCell>
        <mxCell id="bYJwymjEN58D1QEqfzbn-107" style="edgeStyle=orthogonalEdgeStyle;rounded=0;orthogonalLoop=1;jettySize=auto;html=1;fontSize=16;fontColor=#000000;startArrow=none;startFill=0;endArrow=none;endFill=0;" edge="1" parent="1" source="bYJwymjEN58D1QEqfzbn-63" target="bYJwymjEN58D1QEqfzbn-13">
          <mxGeometry relative="1" as="geometry" />
        </mxCell>
        <mxCell id="bYJwymjEN58D1QEqfzbn-63" value="&amp;lt;fulfillment&amp;gt;&lt;br&gt;&lt;br&gt;&lt;span id=&quot;docs-internal-guid-30c552a8-7fff-c146-13df-889dcf74978a&quot;&gt;&lt;span style=&quot;font-family: &amp;quot;Noto Sans SC&amp;quot;, sans-serif; background-color: transparent; font-variant-numeric: normal; font-variant-east-asian: normal; vertical-align: baseline;&quot;&gt;&lt;font style=&quot;font-size: 12px;&quot;&gt;应价请求&lt;br&gt;created_at&lt;br&gt;&lt;/font&gt;&lt;/span&gt;&lt;/span&gt;" style="rounded=1;whiteSpace=wrap;html=1;fillColor=#d80073;fontColor=#ffffff;strokeColor=none;" vertex="1" parent="1">
          <mxGeometry x="2161" y="1180" width="100" height="90" as="geometry" />
        </mxCell>
        <mxCell id="bYJwymjEN58D1QEqfzbn-64" style="edgeStyle=orthogonalEdgeStyle;rounded=0;orthogonalLoop=1;jettySize=auto;html=1;fontSize=16;fontColor=#FFFFFF;startArrow=none;startFill=0;endArrow=none;endFill=0;" edge="1" parent="1" source="bYJwymjEN58D1QEqfzbn-65" target="bYJwymjEN58D1QEqfzbn-63">
          <mxGeometry relative="1" as="geometry" />
        </mxCell>
        <mxCell id="bYJwymjEN58D1QEqfzbn-65" value="&amp;lt;fulfillment&amp;gt;&lt;br&gt;&lt;br&gt;&lt;span id=&quot;docs-internal-guid-30c552a8-7fff-c146-13df-889dcf74978a&quot;&gt;&lt;span style=&quot;font-family: &amp;quot;Noto Sans SC&amp;quot;, sans-serif; background-color: transparent; font-variant-numeric: normal; font-variant-east-asian: normal; vertical-align: baseline;&quot;&gt;&lt;font style=&quot;font-size: 12px;&quot;&gt;应价请求确认&lt;br&gt;created_at&lt;br&gt;&lt;/font&gt;&lt;/span&gt;&lt;/span&gt;" style="rounded=1;whiteSpace=wrap;html=1;fillColor=#D80073;fontColor=#FFFFFF;strokeColor=#BD7000;" vertex="1" parent="1">
          <mxGeometry x="1935" y="1185" width="140" height="80" as="geometry" />
        </mxCell>
        <mxCell id="bYJwymjEN58D1QEqfzbn-66" value="竞买人" style="rounded=1;whiteSpace=wrap;html=1;fontSize=12;fontColor=#FFFFFF;fillColor=#f0a30a;strokeColor=none;" vertex="1" parent="1">
          <mxGeometry x="2107" y="1257.5" width="70" height="30" as="geometry" />
        </mxCell>
        <mxCell id="bYJwymjEN58D1QEqfzbn-67" value="拍卖平台" style="rounded=1;whiteSpace=wrap;html=1;fontSize=12;fontColor=#FFFFFF;fillColor=#f0a30a;strokeColor=none;" vertex="1" parent="1">
          <mxGeometry x="1886" y="1252" width="70" height="30" as="geometry" />
        </mxCell>
        <mxCell id="bYJwymjEN58D1QEqfzbn-68" value="1" style="text;html=1;align=center;verticalAlign=middle;resizable=0;points=[];autosize=1;strokeColor=none;fillColor=none;fontColor=#000000;" vertex="1" parent="1">
          <mxGeometry x="2064" y="1193" width="40" height="40" as="geometry" />
        </mxCell>
        <mxCell id="bYJwymjEN58D1QEqfzbn-69" value="1" style="text;html=1;align=center;verticalAlign=middle;resizable=0;points=[];autosize=1;strokeColor=none;fillColor=none;fontColor=#000000;" vertex="1" parent="1">
          <mxGeometry x="2123" y="1197" width="40" height="40" as="geometry" />
        </mxCell>
        <mxCell id="bYJwymjEN58D1QEqfzbn-109" style="edgeStyle=orthogonalEdgeStyle;rounded=0;orthogonalLoop=1;jettySize=auto;html=1;entryX=0;entryY=0.25;entryDx=0;entryDy=0;fontSize=16;fontColor=#000000;startArrow=none;startFill=0;endArrow=none;endFill=0;" edge="1" parent="1" source="bYJwymjEN58D1QEqfzbn-70" target="bYJwymjEN58D1QEqfzbn-13">
          <mxGeometry relative="1" as="geometry" />
        </mxCell>
        <mxCell id="bYJwymjEN58D1QEqfzbn-70" value="&amp;lt;fulfillment&amp;gt;&lt;br&gt;&lt;br&gt;&lt;span id=&quot;docs-internal-guid-30c552a8-7fff-c146-13df-889dcf74978a&quot;&gt;&lt;span style=&quot;font-family: &amp;quot;Noto Sans SC&amp;quot;, sans-serif; background-color: transparent; font-variant-numeric: normal; font-variant-east-asian: normal; vertical-align: baseline;&quot;&gt;&lt;font style=&quot;font-size: 12px;&quot;&gt;竞价延时请求&lt;br&gt;created_at&lt;br&gt;&lt;/font&gt;&lt;/span&gt;&lt;/span&gt;" style="rounded=1;whiteSpace=wrap;html=1;fillColor=#d80073;fontColor=#ffffff;strokeColor=none;" vertex="1" parent="1">
          <mxGeometry x="2161" y="1328" width="100" height="90" as="geometry" />
        </mxCell>
        <mxCell id="bYJwymjEN58D1QEqfzbn-71" style="edgeStyle=orthogonalEdgeStyle;rounded=0;orthogonalLoop=1;jettySize=auto;html=1;fontSize=16;fontColor=#FFFFFF;startArrow=none;startFill=0;endArrow=none;endFill=0;" edge="1" parent="1" source="bYJwymjEN58D1QEqfzbn-72" target="bYJwymjEN58D1QEqfzbn-70">
          <mxGeometry relative="1" as="geometry" />
        </mxCell>
        <mxCell id="bYJwymjEN58D1QEqfzbn-72" value="&amp;lt;fulfillment&amp;gt;&lt;br&gt;&lt;br&gt;&lt;span id=&quot;docs-internal-guid-30c552a8-7fff-c146-13df-889dcf74978a&quot;&gt;&lt;span style=&quot;font-family: &amp;quot;Noto Sans SC&amp;quot;, sans-serif; background-color: transparent; font-variant-numeric: normal; font-variant-east-asian: normal; vertical-align: baseline;&quot;&gt;&lt;font style=&quot;font-size: 12px;&quot;&gt;竞价延时确认&lt;br&gt;created_at&lt;br&gt;&lt;/font&gt;&lt;/span&gt;&lt;/span&gt;" style="rounded=1;whiteSpace=wrap;html=1;fillColor=#D80073;fontColor=#FFFFFF;strokeColor=#BD7000;" vertex="1" parent="1">
          <mxGeometry x="1935" y="1333" width="140" height="80" as="geometry" />
        </mxCell>
        <mxCell id="bYJwymjEN58D1QEqfzbn-73" value="竞买人" style="rounded=1;whiteSpace=wrap;html=1;fontSize=12;fontColor=#FFFFFF;fillColor=#f0a30a;strokeColor=none;" vertex="1" parent="1">
          <mxGeometry x="2099" y="1414.5" width="70" height="30" as="geometry" />
        </mxCell>
        <mxCell id="bYJwymjEN58D1QEqfzbn-74" value="拍卖平台" style="rounded=1;whiteSpace=wrap;html=1;fontSize=12;fontColor=#FFFFFF;fillColor=#f0a30a;strokeColor=none;" vertex="1" parent="1">
          <mxGeometry x="1886" y="1400" width="70" height="30" as="geometry" />
        </mxCell>
        <mxCell id="bYJwymjEN58D1QEqfzbn-75" value="1" style="text;html=1;align=center;verticalAlign=middle;resizable=0;points=[];autosize=1;strokeColor=none;fillColor=none;fontColor=#000000;" vertex="1" parent="1">
          <mxGeometry x="2064" y="1341" width="40" height="40" as="geometry" />
        </mxCell>
        <mxCell id="bYJwymjEN58D1QEqfzbn-76" value="1" style="text;html=1;align=center;verticalAlign=middle;resizable=0;points=[];autosize=1;strokeColor=none;fillColor=none;fontColor=#000000;" vertex="1" parent="1">
          <mxGeometry x="2123" y="1345" width="40" height="40" as="geometry" />
        </mxCell>
        <mxCell id="bYJwymjEN58D1QEqfzbn-79" value="&amp;lt;domin&amp;gt;&lt;br&gt;&lt;br&gt;&lt;span id=&quot;docs-internal-guid-30c552a8-7fff-c146-13df-889dcf74978a&quot;&gt;&lt;span style=&quot;font-family: &amp;quot;Noto Sans SC&amp;quot;, sans-serif; background-color: transparent; font-variant-numeric: normal; font-variant-east-asian: normal; vertical-align: baseline;&quot;&gt;&lt;font style=&quot;font-size: 12px;&quot;&gt;估计成本计算逻辑&lt;br&gt;&lt;/font&gt;&lt;/span&gt;&lt;/span&gt;" style="rounded=1;whiteSpace=wrap;html=1;fillColor=#f0a30a;fontColor=#FFFFFF;strokeColor=#BD7000;" vertex="1" parent="1">
          <mxGeometry x="2403" y="1318" width="120" height="60" as="geometry" />
        </mxCell>
        <mxCell id="bYJwymjEN58D1QEqfzbn-80" style="edgeStyle=orthogonalEdgeStyle;rounded=0;orthogonalLoop=1;jettySize=auto;html=1;exitX=0.75;exitY=1;exitDx=0;exitDy=0;entryX=1;entryY=0.5;entryDx=0;entryDy=0;fontSize=16;fontColor=#000000;startArrow=none;startFill=0;endArrow=none;endFill=0;" edge="1" parent="1" source="gqOUeNTk_rE2bpNe1rsm-212" target="gqOUeNTk_rE2bpNe1rsm-212">
          <mxGeometry relative="1" as="geometry" />
        </mxCell>
        <mxCell id="bYJwymjEN58D1QEqfzbn-110" style="edgeStyle=orthogonalEdgeStyle;rounded=0;orthogonalLoop=1;jettySize=auto;html=1;entryX=0;entryY=0.5;entryDx=0;entryDy=0;fontSize=16;fontColor=#000000;startArrow=none;startFill=0;endArrow=none;endFill=0;" edge="1" parent="1" source="bYJwymjEN58D1QEqfzbn-81" target="bYJwymjEN58D1QEqfzbn-13">
          <mxGeometry relative="1" as="geometry" />
        </mxCell>
        <mxCell id="bYJwymjEN58D1QEqfzbn-81" value="&amp;lt;fulfillment&amp;gt;&lt;br&gt;&lt;br&gt;&lt;span id=&quot;docs-internal-guid-30c552a8-7fff-c146-13df-889dcf74978a&quot;&gt;&lt;span style=&quot;font-family: &amp;quot;Noto Sans SC&amp;quot;, sans-serif; background-color: transparent; font-variant-numeric: normal; font-variant-east-asian: normal; vertical-align: baseline;&quot;&gt;&lt;font style=&quot;font-size: 12px;&quot;&gt;获拍请求&lt;br&gt;created_at&lt;br&gt;&lt;/font&gt;&lt;/span&gt;&lt;/span&gt;" style="rounded=1;whiteSpace=wrap;html=1;fillColor=#d80073;fontColor=#ffffff;strokeColor=none;" vertex="1" parent="1">
          <mxGeometry x="2160" y="1473" width="100" height="90" as="geometry" />
        </mxCell>
        <mxCell id="bYJwymjEN58D1QEqfzbn-82" style="edgeStyle=orthogonalEdgeStyle;rounded=0;orthogonalLoop=1;jettySize=auto;html=1;fontSize=16;fontColor=#FFFFFF;startArrow=none;startFill=0;endArrow=none;endFill=0;" edge="1" parent="1" source="bYJwymjEN58D1QEqfzbn-83" target="bYJwymjEN58D1QEqfzbn-81">
          <mxGeometry relative="1" as="geometry" />
        </mxCell>
        <mxCell id="bYJwymjEN58D1QEqfzbn-83" value="&amp;lt;fulfillment&amp;gt;&lt;br&gt;&lt;br&gt;&lt;span id=&quot;docs-internal-guid-30c552a8-7fff-c146-13df-889dcf74978a&quot;&gt;&lt;span style=&quot;font-family: &amp;quot;Noto Sans SC&amp;quot;, sans-serif; background-color: transparent; font-variant-numeric: normal; font-variant-east-asian: normal; vertical-align: baseline;&quot;&gt;&lt;font style=&quot;font-size: 12px;&quot;&gt;获拍确认&lt;br&gt;created_at&lt;br&gt;&lt;/font&gt;&lt;/span&gt;&lt;/span&gt;" style="rounded=1;whiteSpace=wrap;html=1;fillColor=#D80073;fontColor=#ffffff;strokeColor=#B20000;" vertex="1" parent="1">
          <mxGeometry x="1934" y="1478" width="140" height="80" as="geometry" />
        </mxCell>
        <mxCell id="bYJwymjEN58D1QEqfzbn-84" value="竞买人" style="rounded=1;whiteSpace=wrap;html=1;fontSize=12;fontColor=#FFFFFF;fillColor=#f0a30a;strokeColor=none;" vertex="1" parent="1">
          <mxGeometry x="2107" y="1545" width="70" height="30" as="geometry" />
        </mxCell>
        <mxCell id="bYJwymjEN58D1QEqfzbn-85" value="拍卖平台" style="rounded=1;whiteSpace=wrap;html=1;fontSize=12;fontColor=#FFFFFF;fillColor=#f0a30a;strokeColor=none;" vertex="1" parent="1">
          <mxGeometry x="1885" y="1545" width="70" height="30" as="geometry" />
        </mxCell>
        <mxCell id="bYJwymjEN58D1QEqfzbn-86" value="1" style="text;html=1;align=center;verticalAlign=middle;resizable=0;points=[];autosize=1;strokeColor=none;fillColor=none;fontColor=#000000;" vertex="1" parent="1">
          <mxGeometry x="2063" y="1486" width="40" height="40" as="geometry" />
        </mxCell>
        <mxCell id="bYJwymjEN58D1QEqfzbn-87" value="1" style="text;html=1;align=center;verticalAlign=middle;resizable=0;points=[];autosize=1;strokeColor=none;fillColor=none;fontColor=#000000;" vertex="1" parent="1">
          <mxGeometry x="2122" y="1490" width="40" height="40" as="geometry" />
        </mxCell>
        <mxCell id="bYJwymjEN58D1QEqfzbn-112" style="edgeStyle=orthogonalEdgeStyle;rounded=0;orthogonalLoop=1;jettySize=auto;html=1;entryX=0;entryY=0.75;entryDx=0;entryDy=0;fontSize=16;fontColor=#000000;startArrow=none;startFill=0;endArrow=none;endFill=0;" edge="1" parent="1" source="bYJwymjEN58D1QEqfzbn-88" target="bYJwymjEN58D1QEqfzbn-13">
          <mxGeometry relative="1" as="geometry" />
        </mxCell>
        <mxCell id="bYJwymjEN58D1QEqfzbn-88" value="&amp;lt;fulfillment&amp;gt;&lt;br&gt;&lt;br&gt;&lt;span id=&quot;docs-internal-guid-30c552a8-7fff-c146-13df-889dcf74978a&quot;&gt;&lt;span style=&quot;font-family: &amp;quot;Noto Sans SC&amp;quot;, sans-serif; background-color: transparent; font-variant-numeric: normal; font-variant-east-asian: normal; vertical-align: baseline;&quot;&gt;&lt;font style=&quot;font-size: 12px;&quot;&gt;退还保证金请求&lt;br&gt;created_at&lt;br&gt;&lt;/font&gt;&lt;/span&gt;&lt;/span&gt;" style="rounded=1;whiteSpace=wrap;html=1;fillColor=#d80073;fontColor=#ffffff;strokeColor=none;" vertex="1" parent="1">
          <mxGeometry x="2161" y="1639.5" width="100" height="90" as="geometry" />
        </mxCell>
        <mxCell id="bYJwymjEN58D1QEqfzbn-89" style="edgeStyle=orthogonalEdgeStyle;rounded=0;orthogonalLoop=1;jettySize=auto;html=1;fontSize=16;fontColor=#FFFFFF;startArrow=none;startFill=0;endArrow=none;endFill=0;" edge="1" parent="1" source="bYJwymjEN58D1QEqfzbn-90" target="bYJwymjEN58D1QEqfzbn-88">
          <mxGeometry relative="1" as="geometry" />
        </mxCell>
        <mxCell id="bYJwymjEN58D1QEqfzbn-100" style="edgeStyle=orthogonalEdgeStyle;rounded=0;orthogonalLoop=1;jettySize=auto;html=1;entryX=1;entryY=0.5;entryDx=0;entryDy=0;dashed=1;fontSize=16;fontColor=#000000;startArrow=block;startFill=0;endArrow=none;endFill=0;" edge="1" parent="1" source="bYJwymjEN58D1QEqfzbn-90" target="gqOUeNTk_rE2bpNe1rsm-213">
          <mxGeometry relative="1" as="geometry" />
        </mxCell>
        <mxCell id="bYJwymjEN58D1QEqfzbn-90" value="&amp;lt;fulfillment&amp;gt;&lt;br&gt;&lt;br&gt;&lt;span id=&quot;docs-internal-guid-30c552a8-7fff-c146-13df-889dcf74978a&quot;&gt;&lt;span style=&quot;font-family: &amp;quot;Noto Sans SC&amp;quot;, sans-serif; background-color: transparent; font-variant-numeric: normal; font-variant-east-asian: normal; vertical-align: baseline;&quot;&gt;&lt;font style=&quot;font-size: 12px;&quot;&gt;退还保证金确认&lt;br&gt;created_at&lt;br&gt;&lt;/font&gt;&lt;/span&gt;&lt;/span&gt;" style="rounded=1;whiteSpace=wrap;html=1;fillColor=#f0a30a;fontColor=#FFFFFF;strokeColor=#BD7000;" vertex="1" parent="1">
          <mxGeometry x="1935" y="1644.5" width="140" height="80" as="geometry" />
        </mxCell>
        <mxCell id="bYJwymjEN58D1QEqfzbn-91" value="竞买人" style="rounded=1;whiteSpace=wrap;html=1;fontSize=12;fontColor=#FFFFFF;fillColor=#f0a30a;strokeColor=none;" vertex="1" parent="1">
          <mxGeometry x="1900" y="1713" width="70" height="30" as="geometry" />
        </mxCell>
        <mxCell id="bYJwymjEN58D1QEqfzbn-92" value="拍卖平台" style="rounded=1;whiteSpace=wrap;html=1;fontSize=12;fontColor=#FFFFFF;fillColor=#f0a30a;strokeColor=none;" vertex="1" parent="1">
          <mxGeometry x="2109" y="1716" width="70" height="30" as="geometry" />
        </mxCell>
        <mxCell id="bYJwymjEN58D1QEqfzbn-93" value="1" style="text;html=1;align=center;verticalAlign=middle;resizable=0;points=[];autosize=1;strokeColor=none;fillColor=none;fontColor=#000000;" vertex="1" parent="1">
          <mxGeometry x="2064" y="1652.5" width="40" height="40" as="geometry" />
        </mxCell>
        <mxCell id="bYJwymjEN58D1QEqfzbn-94" value="1" style="text;html=1;align=center;verticalAlign=middle;resizable=0;points=[];autosize=1;strokeColor=none;fillColor=none;fontColor=#000000;" vertex="1" parent="1">
          <mxGeometry x="2123" y="1656.5" width="40" height="40" as="geometry" />
        </mxCell>
        <mxCell id="bYJwymjEN58D1QEqfzbn-96" value="" style="endArrow=none;html=1;rounded=0;fontSize=16;fontColor=#000000;exitX=1;exitY=0.5;exitDx=0;exitDy=0;" edge="1" parent="1" source="bYJwymjEN58D1QEqfzbn-63" target="bYJwymjEN58D1QEqfzbn-79">
          <mxGeometry width="50" height="50" relative="1" as="geometry">
            <mxPoint x="2271" y="1298" as="sourcePoint" />
            <mxPoint x="2321" y="1248" as="targetPoint" />
          </mxGeometry>
        </mxCell>
        <mxCell id="bYJwymjEN58D1QEqfzbn-113" value="1" style="text;html=1;align=center;verticalAlign=middle;resizable=0;points=[];autosize=1;strokeColor=none;fillColor=none;fontColor=#000000;" vertex="1" parent="1">
          <mxGeometry x="2295" y="1121" width="40" height="40" as="geometry" />
        </mxCell>
        <mxCell id="bYJwymjEN58D1QEqfzbn-114" value="1" style="text;html=1;align=center;verticalAlign=middle;resizable=0;points=[];autosize=1;strokeColor=none;fillColor=none;fontColor=#000000;" vertex="1" parent="1">
          <mxGeometry x="2253" y="1048" width="40" height="40" as="geometry" />
        </mxCell>
        <mxCell id="bYJwymjEN58D1QEqfzbn-115" value="1" style="text;html=1;align=center;verticalAlign=middle;resizable=0;points=[];autosize=1;strokeColor=none;fillColor=none;fontColor=#000000;" vertex="1" parent="1">
          <mxGeometry x="2296" y="1147" width="40" height="40" as="geometry" />
        </mxCell>
        <mxCell id="bYJwymjEN58D1QEqfzbn-116" value="1" style="text;html=1;align=center;verticalAlign=middle;resizable=0;points=[];autosize=1;strokeColor=none;fillColor=none;fontColor=#000000;" vertex="1" parent="1">
          <mxGeometry x="2297" y="1173" width="40" height="40" as="geometry" />
        </mxCell>
        <mxCell id="bYJwymjEN58D1QEqfzbn-117" value="1" style="text;html=1;align=center;verticalAlign=middle;resizable=0;points=[];autosize=1;strokeColor=none;fillColor=none;fontColor=#000000;" vertex="1" parent="1">
          <mxGeometry x="2255" y="1197" width="40" height="40" as="geometry" />
        </mxCell>
        <mxCell id="bYJwymjEN58D1QEqfzbn-118" value="1" style="text;html=1;align=center;verticalAlign=middle;resizable=0;points=[];autosize=1;strokeColor=none;fillColor=none;fontColor=#000000;" vertex="1" parent="1">
          <mxGeometry x="2253" y="1343" width="40" height="40" as="geometry" />
        </mxCell>
        <mxCell id="bYJwymjEN58D1QEqfzbn-119" value="1" style="text;html=1;align=center;verticalAlign=middle;resizable=0;points=[];autosize=1;strokeColor=none;fillColor=none;fontColor=#000000;" vertex="1" parent="1">
          <mxGeometry x="2253" y="1488" width="40" height="40" as="geometry" />
        </mxCell>
        <mxCell id="bYJwymjEN58D1QEqfzbn-120" value="1" style="text;html=1;align=center;verticalAlign=middle;resizable=0;points=[];autosize=1;strokeColor=none;fillColor=none;fontColor=#000000;" vertex="1" parent="1">
          <mxGeometry x="2253" y="1654" width="40" height="40" as="geometry" />
        </mxCell>
        <mxCell id="bYJwymjEN58D1QEqfzbn-121" style="edgeStyle=orthogonalEdgeStyle;rounded=0;orthogonalLoop=1;jettySize=auto;html=1;exitX=0.5;exitY=0;exitDx=0;exitDy=0;dashed=1;fontColor=#000000;startArrow=classic;startFill=0;endArrow=none;endFill=0;" edge="1" parent="1" source="bYJwymjEN58D1QEqfzbn-122" target="bYJwymjEN58D1QEqfzbn-124">
          <mxGeometry relative="1" as="geometry" />
        </mxCell>
        <mxCell id="bYJwymjEN58D1QEqfzbn-122" value="&amp;lt;party&amp;gt;&lt;br&gt;&lt;br&gt;&lt;span id=&quot;docs-internal-guid-30c552a8-7fff-c146-13df-889dcf74978a&quot;&gt;&lt;span style=&quot;background-color: transparent; font-variant-numeric: normal; font-variant-east-asian: normal; vertical-align: baseline;&quot;&gt;&lt;font style=&quot;font-size: 12px;&quot;&gt;买受人&lt;br&gt;&lt;/font&gt;&lt;/span&gt;&lt;/span&gt;" style="rounded=1;whiteSpace=wrap;html=1;fillColor=#f0a30a;fontColor=#FFFFFF;strokeColor=none;" vertex="1" parent="1">
          <mxGeometry x="2632" y="1982" width="100" height="60" as="geometry" />
        </mxCell>
        <mxCell id="bYJwymjEN58D1QEqfzbn-123" value="1" style="text;html=1;align=center;verticalAlign=middle;resizable=0;points=[];autosize=1;strokeColor=none;fillColor=none;fontColor=#000000;" vertex="1" parent="1">
          <mxGeometry x="2657" y="2037" width="40" height="40" as="geometry" />
        </mxCell>
        <mxCell id="bYJwymjEN58D1QEqfzbn-124" value="&amp;lt;party&amp;gt;&lt;br&gt;&lt;br&gt;&lt;span id=&quot;docs-internal-guid-30c552a8-7fff-c146-13df-889dcf74978a&quot;&gt;&lt;span style=&quot;font-family: &amp;quot;Noto Sans SC&amp;quot;, sans-serif; background-color: transparent; font-variant-numeric: normal; font-variant-east-asian: normal; vertical-align: baseline;&quot;&gt;&lt;font style=&quot;font-size: 12px;&quot;&gt;注册用户&lt;br&gt;&lt;/font&gt;&lt;/span&gt;&lt;/span&gt;" style="rounded=1;whiteSpace=wrap;html=1;fillColor=#60a917;fontColor=#ffffff;strokeColor=#2D7600;" vertex="1" parent="1">
          <mxGeometry x="2632" y="1867" width="100" height="60" as="geometry" />
        </mxCell>
        <mxCell id="bYJwymjEN58D1QEqfzbn-125" style="edgeStyle=orthogonalEdgeStyle;rounded=0;orthogonalLoop=1;jettySize=auto;html=1;exitX=0.5;exitY=0;exitDx=0;exitDy=0;dashed=1;fontColor=#000000;startArrow=classic;startFill=0;endArrow=none;endFill=0;" edge="1" parent="1" source="bYJwymjEN58D1QEqfzbn-126" target="bYJwymjEN58D1QEqfzbn-128">
          <mxGeometry relative="1" as="geometry" />
        </mxCell>
        <mxCell id="bYJwymjEN58D1QEqfzbn-126" value="&amp;lt;party&amp;gt;&lt;br&gt;&lt;br&gt;&lt;span id=&quot;docs-internal-guid-30c552a8-7fff-c146-13df-889dcf74978a&quot;&gt;&lt;span style=&quot;font-family: &amp;quot;Noto Sans SC&amp;quot;, sans-serif; background-color: transparent; font-variant-numeric: normal; font-variant-east-asian: normal; vertical-align: baseline;&quot;&gt;&lt;font style=&quot;font-size: 12px;&quot;&gt;拍卖平台&lt;br&gt;&lt;/font&gt;&lt;/span&gt;&lt;/span&gt;" style="rounded=1;whiteSpace=wrap;html=1;fillColor=#f0a30a;fontColor=#FFFFFF;strokeColor=none;" vertex="1" parent="1">
          <mxGeometry x="2441" y="1982" width="100" height="60" as="geometry" />
        </mxCell>
        <mxCell id="bYJwymjEN58D1QEqfzbn-127" value="1" style="text;html=1;align=center;verticalAlign=middle;resizable=0;points=[];autosize=1;strokeColor=none;fillColor=none;fontColor=#000000;" vertex="1" parent="1">
          <mxGeometry x="2451" y="2042" width="40" height="40" as="geometry" />
        </mxCell>
        <mxCell id="bYJwymjEN58D1QEqfzbn-128" value="&amp;lt;party&amp;gt;&lt;br&gt;&lt;br&gt;&lt;span id=&quot;docs-internal-guid-30c552a8-7fff-c146-13df-889dcf74978a&quot;&gt;&lt;span style=&quot;font-family: &amp;quot;Noto Sans SC&amp;quot;, sans-serif; background-color: transparent; font-variant-numeric: normal; font-variant-east-asian: normal; vertical-align: baseline;&quot;&gt;&lt;font style=&quot;font-size: 12px;&quot;&gt;拍一拍拍卖平台&lt;br&gt;&lt;/font&gt;&lt;/span&gt;&lt;/span&gt;" style="rounded=1;whiteSpace=wrap;html=1;fillColor=#60a917;fontColor=#ffffff;strokeColor=#2D7600;" vertex="1" parent="1">
          <mxGeometry x="2441" y="1867" width="100" height="60" as="geometry" />
        </mxCell>
        <mxCell id="bYJwymjEN58D1QEqfzbn-132" value="1" style="text;html=1;align=center;verticalAlign=middle;resizable=0;points=[];autosize=1;strokeColor=none;fillColor=none;fontColor=#000000;" vertex="1" parent="1">
          <mxGeometry x="2421" y="2096" width="40" height="40" as="geometry" />
        </mxCell>
        <mxCell id="bYJwymjEN58D1QEqfzbn-133" value="1" style="text;html=1;align=center;verticalAlign=middle;resizable=0;points=[];autosize=1;strokeColor=none;fillColor=none;fontColor=#000000;" vertex="1" parent="1">
          <mxGeometry x="2465" y="2133" width="40" height="40" as="geometry" />
        </mxCell>
        <mxCell id="bYJwymjEN58D1QEqfzbn-158" style="edgeStyle=orthogonalEdgeStyle;rounded=0;orthogonalLoop=1;jettySize=auto;html=1;dashed=1;fontSize=16;fontColor=#000000;startArrow=block;startFill=0;endArrow=none;endFill=0;" edge="1" parent="1" source="bYJwymjEN58D1QEqfzbn-137" target="6ellRIqbGZI2gtahciG1-166">
          <mxGeometry relative="1" as="geometry" />
        </mxCell>
        <mxCell id="bYJwymjEN58D1QEqfzbn-137" value="&amp;lt;fulfillment&amp;gt;&lt;br&gt;&lt;br&gt;&lt;span id=&quot;docs-internal-guid-30c552a8-7fff-c146-13df-889dcf74978a&quot;&gt;&lt;span style=&quot;font-family: &amp;quot;Noto Sans SC&amp;quot;, sans-serif; background-color: transparent; font-variant-numeric: normal; font-variant-east-asian: normal; vertical-align: baseline;&quot;&gt;&lt;font style=&quot;font-size: 12px;&quot;&gt;支付保管费请求确认&lt;br&gt;created_at&lt;br&gt;expired_at&lt;br&gt;&lt;/font&gt;&lt;/span&gt;&lt;/span&gt;" style="rounded=1;whiteSpace=wrap;html=1;fillColor=#d80073;fontColor=#ffffff;strokeColor=none;" vertex="1" parent="1">
          <mxGeometry x="1904" y="2451" width="127" height="85" as="geometry" />
        </mxCell>
        <mxCell id="bYJwymjEN58D1QEqfzbn-146" style="edgeStyle=orthogonalEdgeStyle;rounded=0;orthogonalLoop=1;jettySize=auto;html=1;entryX=0.961;entryY=0.447;entryDx=0;entryDy=0;entryPerimeter=0;fontSize=16;fontColor=#000000;startArrow=none;startFill=0;endArrow=none;endFill=0;" edge="1" parent="1" source="bYJwymjEN58D1QEqfzbn-138" target="bYJwymjEN58D1QEqfzbn-137">
          <mxGeometry relative="1" as="geometry" />
        </mxCell>
        <mxCell id="bYJwymjEN58D1QEqfzbn-138" value="&amp;lt;fulfillment&amp;gt;&lt;br&gt;&lt;br&gt;&lt;span id=&quot;docs-internal-guid-30c552a8-7fff-c146-13df-889dcf74978a&quot;&gt;&lt;span style=&quot;font-family: &amp;quot;Noto Sans SC&amp;quot;, sans-serif; background-color: transparent; font-variant-numeric: normal; font-variant-east-asian: normal; vertical-align: baseline;&quot;&gt;&lt;font style=&quot;font-size: 12px;&quot;&gt;支付保管费请求&lt;br&gt;created_at&lt;br&gt;expired_at&lt;br&gt;&lt;/font&gt;&lt;/span&gt;&lt;/span&gt;" style="rounded=1;whiteSpace=wrap;html=1;fillColor=#d80073;fontColor=#ffffff;strokeColor=none;" vertex="1" parent="1">
          <mxGeometry x="2145" y="2444" width="110" height="90" as="geometry" />
        </mxCell>
        <mxCell id="bYJwymjEN58D1QEqfzbn-142" value="买受人" style="rounded=1;whiteSpace=wrap;html=1;fontSize=12;fontColor=#FFFFFF;fillColor=#f0a30a;strokeColor=none;" vertex="1" parent="1">
          <mxGeometry x="1861" y="2523" width="70" height="30" as="geometry" />
        </mxCell>
        <mxCell id="bYJwymjEN58D1QEqfzbn-143" value="拍卖平台" style="rounded=1;whiteSpace=wrap;html=1;fontSize=12;fontColor=#FFFFFF;fillColor=#f0a30a;strokeColor=none;" vertex="1" parent="1">
          <mxGeometry x="2099" y="2523" width="70" height="30" as="geometry" />
        </mxCell>
        <mxCell id="bYJwymjEN58D1QEqfzbn-147" value="&lt;font color=&quot;#000000&quot;&gt;1&lt;/font&gt;" style="text;html=1;align=center;verticalAlign=middle;resizable=0;points=[];autosize=1;strokeColor=none;fillColor=none;fontSize=12;fontColor=#FFFFFF;" vertex="1" parent="1">
          <mxGeometry x="2028" y="2461" width="30" height="30" as="geometry" />
        </mxCell>
        <mxCell id="bYJwymjEN58D1QEqfzbn-148" value="&lt;font color=&quot;#000000&quot;&gt;1&lt;/font&gt;" style="text;html=1;align=center;verticalAlign=middle;resizable=0;points=[];autosize=1;strokeColor=none;fillColor=none;fontSize=12;fontColor=#FFFFFF;" vertex="1" parent="1">
          <mxGeometry x="2116" y="2464" width="30" height="30" as="geometry" />
        </mxCell>
        <mxCell id="bYJwymjEN58D1QEqfzbn-161" value="" style="rounded=0;whiteSpace=wrap;html=1;fontSize=16;fontColor=#000000;fillColor=none;" vertex="1" parent="1">
          <mxGeometry x="1866" y="824" width="1003" height="958" as="geometry" />
        </mxCell>
        <mxCell id="bYJwymjEN58D1QEqfzbn-162" value="1" style="text;html=1;align=center;verticalAlign=middle;resizable=0;points=[];autosize=1;strokeColor=none;fillColor=none;fontColor=#000000;" vertex="1" parent="1">
          <mxGeometry x="2355" y="2132" width="40" height="40" as="geometry" />
        </mxCell>
        <mxCell id="bYJwymjEN58D1QEqfzbn-163" value="1" style="text;html=1;align=center;verticalAlign=middle;resizable=0;points=[];autosize=1;strokeColor=none;fillColor=none;fontColor=#000000;" vertex="1" parent="1">
          <mxGeometry x="2250" y="2001" width="40" height="40" as="geometry" />
        </mxCell>
        <mxCell id="bYJwymjEN58D1QEqfzbn-164" value="1" style="text;html=1;align=center;verticalAlign=middle;resizable=0;points=[];autosize=1;strokeColor=none;fillColor=none;fontColor=#000000;" vertex="1" parent="1">
          <mxGeometry x="2236" y="2129" width="40" height="40" as="geometry" />
        </mxCell>
        <mxCell id="bYJwymjEN58D1QEqfzbn-165" value="1" style="text;html=1;align=center;verticalAlign=middle;resizable=0;points=[];autosize=1;strokeColor=none;fillColor=none;fontColor=#000000;" vertex="1" parent="1">
          <mxGeometry x="2245" y="2301" width="40" height="40" as="geometry" />
        </mxCell>
        <mxCell id="bYJwymjEN58D1QEqfzbn-166" value="1" style="text;html=1;align=center;verticalAlign=middle;resizable=0;points=[];autosize=1;strokeColor=none;fillColor=none;fontColor=#000000;" vertex="1" parent="1">
          <mxGeometry x="2245" y="2478" width="40" height="40" as="geometry" />
        </mxCell>
      </root>
    </mxGraphModel>
  </diagram>
</mxfile>
